<svg id="Group_85" data-name="Group 85" xmlns="http://www.w3.org/2000/svg" xmlns:xlink="http://www.w3.org/1999/xlink" width="202" height="202" viewBox="0 0 202 202">
  <defs>
    <linearGradient id="linear-gradient" x1="0.5" x2="0.5" y2="1" gradientUnits="objectBoundingBox">
      <stop offset="0" stop-color="#f6f9fa"/>
      <stop offset="1" stop-color="#fff"/>
    </linearGradient>
  </defs>
  <path id="Path_165" data-name="Path 165" d="M30,0H172a30,30,0,0,1,30,30V172a30,30,0,0,1-30,30H30A30,30,0,0,1,0,172V30A30,30,0,0,1,30,0Z" fill="url(#linear-gradient)"/>
  <path id="Path_260" data-name="Path 260" d="M58.376-66.5a10.244,10.244,0,0,0-3.519-7.368q-3.141-2.645-9.517-2.645a19.132,19.132,0,0,0-6.636.968,8.15,8.15,0,0,0-3.8,2.621,6.42,6.42,0,0,0-1.275,3.778A5.938,5.938,0,0,0,34.265-66,7.132,7.132,0,0,0,36.6-63.5a17.844,17.844,0,0,0,4.109,2.007,44.17,44.17,0,0,0,5.951,1.606l7.935,1.7A59.665,59.665,0,0,1,68.342-53.7a32.98,32.98,0,0,1,9.352,6.541,23.931,23.931,0,0,1,5.361,8.431,30.028,30.028,0,0,1,1.771,10.2q-.047,9.54-4.77,16.153A29.158,29.158,0,0,1,66.571-2.314Q57.81,1.134,45.53,1.134A59.258,59.258,0,0,1,23.544-2.6,30.483,30.483,0,0,1,9-14.1Q3.826-21.868,3.778-34.006H28.716a14.8,14.8,0,0,0,2.22,7.462,12.345,12.345,0,0,0,5.6,4.581A21.673,21.673,0,0,0,45.152-20.4a20.612,20.612,0,0,0,7.037-1.039,9.5,9.5,0,0,0,4.3-2.881A6.8,6.8,0,0,0,58-28.527a6.128,6.128,0,0,0-1.441-3.9A11.916,11.916,0,0,0,52-35.446a49.851,49.851,0,0,0-8.549-2.527l-9.635-2.078Q20.97-42.838,13.579-49.379T6.234-67.256A26.632,26.632,0,0,1,11.17-83.385,32.751,32.751,0,0,1,25.008-94.177,50.313,50.313,0,0,1,45.341-98.05q11.713,0,20.262,3.92A30.515,30.515,0,0,1,78.8-83.1a29.907,29.907,0,0,1,4.7,16.6Z" transform="translate(23.789 175)" fill="#484955"/>
  <path id="Path_261" data-name="Path 261" d="M109.385,1.511a12.86,12.86,0,0,1-9.375-3.849,12.52,12.52,0,0,1-3.849-9.375,12.28,12.28,0,0,1,3.849-9.21,12.9,12.9,0,0,1,9.375-3.826,12.89,12.89,0,0,1,9.186,3.826,12.461,12.461,0,0,1,4.038,9.21A12.716,12.716,0,0,1,120.7-5.03a14.172,14.172,0,0,1-4.841,4.77A12.424,12.424,0,0,1,109.385,1.511Z" transform="translate(23.789 175)" fill="#737ceb"/>
</svg>
