<svg xmlns="http://www.w3.org/2000/svg" viewBox="0 0 500 500"><g id="freepik--Floor--inject-4"><ellipse id="freepik--floor--inject-4" cx="249.05" cy="360.94" rx="218.59" ry="120.16" style="fill:#f5f5f5"></ellipse></g><g id="freepik--Shadows--inject-4"><ellipse id="freepik--Shadow--inject-4" cx="377.87" cy="384.26" rx="38.17" ry="22.04" style="fill:#e0e0e0"></ellipse><path id="freepik--shadow--inject-4" d="M60.94,402.44l-8.25-4.77c-2.6-1.5-2.6-3.93,0-5.43L299.45,249.77a10.42,10.42,0,0,1,9.42,0l8.24,4.76c2.6,1.51,2.6,3.94,0,5.44L70.35,402.44A10.4,10.4,0,0,1,60.94,402.44Z" style="fill:#e0e0e0"></path></g><g id="freepik--Window--inject-4"><g id="freepik--window--inject-4"><path d="M63.17,204,319.35,56.07v-15h0a5.45,5.45,0,0,0-.09-.94.5.5,0,0,0,0-.12,3.79,3.79,0,0,0-.22-.72l-.06-.15a2.91,2.91,0,0,0-.34-.54l-.12-.13a1.88,1.88,0,0,0-.43-.37,2,2,0,0,0-.32-.18.75.75,0,0,1,.13.06c-.55-.34-2.15-1.26-3.83-2.23L309.25,33l-.12-.07-.33-.16a3.6,3.6,0,0,0-3,.49L78.71,164.4,59,175.76a7.27,7.27,0,0,0-.94.66,10.54,10.54,0,0,0-3.76,7.49v15l8.83,5.1Z" style="fill:#737CEB"></path><path d="M318.3,38.3l-.16-.11Z" style="fill:#f5f5f5"></path><path d="M318.14,38.19a1.7,1.7,0,0,0-.22-.15l.09.05Z" style="fill:#f5f5f5"></path><path d="M318.57,38.57a1.72,1.72,0,0,0-.27-.27A2.29,2.29,0,0,1,318.57,38.57Z" style="fill:#f5f5f5"></path><path d="M67.88,180.86,314.64,38.39c2.6-1.5,4.71-.28,4.71,2.72V249.53a10.4,10.4,0,0,1-4.71,8.15L67.88,400.15c-2.6,1.5-4.71.28-4.71-2.72V189A10.4,10.4,0,0,1,67.88,180.86Z" style="fill:#f0f0f0"></path><path d="M314.64,38.39,67.88,180.86A10.4,10.4,0,0,0,63.17,189v15L319.35,56.07v-15C319.35,38.11,317.24,36.89,314.64,38.39Z" style="fill:#737CEB"></path><path d="M55.71,179.28a9.63,9.63,0,0,0-1.38,4.64v15l8.84,5.1V189a9.63,9.63,0,0,1,1.38-4.64Z" style="opacity:0.1"></path><path d="M309.13,33a3.32,3.32,0,0,0-3.33.33L59,175.76a9.59,9.59,0,0,0-3.33,3.52l8.84,5.1a9.59,9.59,0,0,1,3.33-3.52L314.64,38.39a3.32,3.32,0,0,1,3.24-.37C316.61,37.26,310,33.43,309.13,33Z" style="fill:#fff;opacity:0.4"></path><path d="M64.46,400.42c-1.21-.68-8-4.56-8.81-5.09a3.33,3.33,0,0,1-1.31-3V198.88l8.84,5.1V397.43A3.36,3.36,0,0,0,64.46,400.42Z" style="fill:#e6e6e6"></path><path d="M289,59.07c-1.54.89-2.78,3.52-2.78,5.88s1.24,3.56,2.78,2.68,2.78-3.52,2.78-5.89S290.55,58.19,289,59.07Z" style="fill:#455a64"></path><path d="M299,53.29c-1.53.88-2.78,3.52-2.78,5.88s1.25,3.56,2.78,2.67,2.78-3.52,2.78-5.88S300.56,52.4,299,53.29Z" style="fill:#455a64"></path><path d="M309,47.5c-1.53.89-2.77,3.52-2.77,5.88s1.24,3.56,2.77,2.68,2.78-3.52,2.78-5.89S310.56,46.61,309,47.5Z" style="fill:#455a64"></path><polygon points="76.42 216.73 195.68 147.88 195.68 305.98 76.42 374.83 76.42 216.73" style="fill:#737CEB;opacity:0.15"></polygon><path d="M76.42,219a.76.76,0,0,1-.75-.75v-1.5a.73.73,0,0,1,.38-.65l1.3-.75a.74.74,0,0,1,1,.27.76.76,0,0,1-.27,1l-.93.53v1.07A.75.75,0,0,1,76.42,219Z" style="fill:#737CEB"></path><path d="M82.11,214.19a.75.75,0,0,1-.65-.37.74.74,0,0,1,.27-1l2.63-1.52a.75.75,0,0,1,1,.27.76.76,0,0,1-.28,1l-2.63,1.51A.74.74,0,0,1,82.11,214.19Zm7-4.05a.75.75,0,0,1-.65-.37.76.76,0,0,1,.28-1l2.63-1.51a.75.75,0,0,1,.75,1.29L89.5,210A.75.75,0,0,1,89.12,210.14Zm7-4a.75.75,0,0,1-.65-.37.76.76,0,0,1,.27-1l2.64-1.52a.75.75,0,0,1,1,.28.75.75,0,0,1-.27,1L96.51,206A.69.69,0,0,1,96.14,206.09Zm7-4.05a.75.75,0,0,1-.38-1.4l2.63-1.52a.76.76,0,0,1,1,.28.75.75,0,0,1-.28,1l-2.63,1.52A.74.74,0,0,1,103.16,202Zm7-4a.75.75,0,0,1-.37-1.4l2.63-1.52a.75.75,0,0,1,.75,1.3l-2.63,1.52A.75.75,0,0,1,110.17,198Zm7-4.05a.76.76,0,0,1-.65-.38.75.75,0,0,1,.28-1l2.63-1.52a.75.75,0,0,1,.75,1.3l-2.63,1.52A.75.75,0,0,1,117.19,193.94Zm7-4.05a.76.76,0,0,1-.65-.38.74.74,0,0,1,.27-1l2.63-1.52a.75.75,0,1,1,.75,1.3l-2.63,1.52A.71.71,0,0,1,124.21,189.89Zm7-4a.75.75,0,0,1-.38-1.4l2.63-1.52a.75.75,0,0,1,1,.27.76.76,0,0,1-.28,1l-2.63,1.52A.86.86,0,0,1,131.23,185.84Zm7-4.05a.75.75,0,0,1-.37-1.4l2.63-1.52a.74.74,0,0,1,1,.27.75.75,0,0,1-.27,1l-2.63,1.52A.86.86,0,0,1,138.24,181.79Zm7-4.06a.75.75,0,0,1-.38-1.4l2.63-1.51a.75.75,0,0,1,1,.27.74.74,0,0,1-.28,1l-2.63,1.52A.69.69,0,0,1,145.26,177.73Zm7-4a.73.73,0,0,1-.65-.37.75.75,0,0,1,.27-1l2.63-1.52a.76.76,0,0,1,1,.28.75.75,0,0,1-.28,1l-2.63,1.52A.74.74,0,0,1,152.28,173.68Zm7-4.05a.75.75,0,0,1-.65-.37.76.76,0,0,1,.28-1l2.63-1.52a.75.75,0,0,1,1,.28.74.74,0,0,1-.27,1l-2.63,1.52A.75.75,0,0,1,159.29,169.63Zm7-4a.75.75,0,0,1-.65-.37.76.76,0,0,1,.27-1l2.64-1.52a.75.75,0,0,1,.75,1.3l-2.64,1.52A.69.69,0,0,1,166.31,165.58Zm7-4.05a.75.75,0,0,1-.38-1.4l2.63-1.52a.75.75,0,1,1,.75,1.3l-2.63,1.52A.74.74,0,0,1,173.33,161.53Zm7-4.05a.75.75,0,0,1-.37-1.4l2.63-1.52a.74.74,0,0,1,1,.27.75.75,0,0,1-.27,1l-2.63,1.52A.75.75,0,0,1,180.34,157.48Zm7-4a.76.76,0,0,1-.65-.38.75.75,0,0,1,.27-1l2.64-1.52a.74.74,0,0,1,1,.27.75.75,0,0,1-.27,1l-2.64,1.52A.69.69,0,0,1,187.36,153.43Z" style="fill:#737CEB"></path><path d="M195.68,150.13a.75.75,0,0,1-.75-.75v-.21l-.18.11a.75.75,0,0,1-1-.28.74.74,0,0,1,.27-1l1.3-.75a.72.72,0,0,1,.75,0,.75.75,0,0,1,.38.65v1.5A.76.76,0,0,1,195.68,150.13Z" style="fill:#737CEB"></path><path d="M195.68,300.29a.74.74,0,0,1-.75-.75v-3a.75.75,0,0,1,1.5,0v3A.75.75,0,0,1,195.68,300.29Zm0-7.9a.75.75,0,0,1-.75-.75v-3a.75.75,0,0,1,1.5,0v3A.76.76,0,0,1,195.68,292.39Zm0-7.91a.74.74,0,0,1-.75-.75v-3a.75.75,0,0,1,1.5,0v3A.75.75,0,0,1,195.68,284.48Zm0-7.9a.74.74,0,0,1-.75-.75v-3a.75.75,0,0,1,1.5,0v3A.75.75,0,0,1,195.68,276.58Zm0-7.9a.75.75,0,0,1-.75-.75v-3a.75.75,0,0,1,1.5,0v3A.76.76,0,0,1,195.68,268.68Zm0-7.91a.74.74,0,0,1-.75-.75v-3a.75.75,0,0,1,1.5,0v3A.75.75,0,0,1,195.68,260.77Zm0-7.9a.75.75,0,0,1-.75-.75v-3a.75.75,0,0,1,1.5,0v3A.76.76,0,0,1,195.68,252.87Zm0-7.9a.75.75,0,0,1-.75-.75v-3a.75.75,0,0,1,1.5,0v3A.76.76,0,0,1,195.68,245Zm0-7.91a.74.74,0,0,1-.75-.75v-3a.75.75,0,1,1,1.5,0v3A.75.75,0,0,1,195.68,237.06Zm0-7.9a.75.75,0,0,1-.75-.75v-3a.75.75,0,0,1,1.5,0v3A.76.76,0,0,1,195.68,229.16Zm0-7.9a.75.75,0,0,1-.75-.75v-3a.75.75,0,0,1,1.5,0v3A.76.76,0,0,1,195.68,221.26Zm0-7.91a.74.74,0,0,1-.75-.75v-3a.75.75,0,0,1,1.5,0v3A.75.75,0,0,1,195.68,213.35Zm0-7.9a.75.75,0,0,1-.75-.75v-3a.75.75,0,0,1,1.5,0v3A.76.76,0,0,1,195.68,205.45Zm0-7.9a.75.75,0,0,1-.75-.75v-3a.75.75,0,1,1,1.5,0v3A.76.76,0,0,1,195.68,197.55Zm0-7.91a.74.74,0,0,1-.75-.75v-3a.75.75,0,0,1,1.5,0v3A.75.75,0,0,1,195.68,189.64Zm0-7.9a.75.75,0,0,1-.75-.75v-3a.75.75,0,0,1,1.5,0v3A.76.76,0,0,1,195.68,181.74Zm0-7.9a.75.75,0,0,1-.75-.75v-3a.75.75,0,0,1,1.5,0v3A.76.76,0,0,1,195.68,173.84Zm0-7.91a.74.74,0,0,1-.75-.75v-3a.75.75,0,1,1,1.5,0v3A.75.75,0,0,1,195.68,165.93Zm0-7.9a.75.75,0,0,1-.75-.75v-3a.75.75,0,0,1,1.5,0v3A.76.76,0,0,1,195.68,158Z" style="fill:#737CEB"></path><path d="M194.38,307.48a.75.75,0,0,1-.38-1.4l.93-.53v-1.07a.75.75,0,0,1,1.5,0V306a.75.75,0,0,1-.38.65l-1.3.75A.74.74,0,0,1,194.38,307.48Z" style="fill:#737CEB"></path><path d="M82.1,372.3a.73.73,0,0,1-.64-.37.75.75,0,0,1,.27-1l2.63-1.52a.76.76,0,0,1,1,.28.75.75,0,0,1-.28,1l-2.63,1.52A.75.75,0,0,1,82.1,372.3Zm7-4.05a.74.74,0,0,1-.65-.38.75.75,0,0,1,.28-1l2.63-1.52a.75.75,0,0,1,.75,1.3l-2.63,1.52A.75.75,0,0,1,89.12,368.25Zm7-4.05a.76.76,0,0,1-.65-.38.74.74,0,0,1,.27-1l2.64-1.52a.74.74,0,0,1,1,.27.76.76,0,0,1-.27,1l-2.64,1.52A.69.69,0,0,1,96.14,364.2Zm7-4.05a.75.75,0,0,1-.38-1.4l2.63-1.52a.75.75,0,0,1,1,.27.76.76,0,0,1-.28,1l-2.63,1.52A.86.86,0,0,1,103.16,360.15Zm7-4a.75.75,0,0,1-.37-1.4l2.63-1.52a.74.74,0,0,1,1,.27.75.75,0,0,1-.27,1L110.55,356A.86.86,0,0,1,110.17,356.1Zm7-4.06a.75.75,0,0,1-.38-1.39l2.64-1.52a.75.75,0,0,1,.75,1.29l-2.64,1.52A.69.69,0,0,1,117.19,352Zm7-4.05a.75.75,0,0,1-.38-1.4l2.63-1.52a.76.76,0,0,1,1,.28.75.75,0,0,1-.28,1l-2.63,1.52A.74.74,0,0,1,124.21,348Zm7-4.05a.75.75,0,0,1-.37-1.4l2.63-1.52a.75.75,0,0,1,1,.28.74.74,0,0,1-.27,1l-2.63,1.52A.75.75,0,0,1,131.22,343.94Zm7-4.05a.75.75,0,0,1-.65-.37.75.75,0,0,1,.28-1L140.5,337a.75.75,0,0,1,.75,1.3l-2.63,1.52A.75.75,0,0,1,138.24,339.89Zm7-4.05a.75.75,0,0,1-.38-1.4l2.63-1.52a.75.75,0,0,1,1,.28.75.75,0,0,1-.28,1l-2.63,1.52A.71.71,0,0,1,145.26,335.84Zm7-4a.75.75,0,0,1-.38-1.4l2.63-1.52a.75.75,0,1,1,.75,1.3l-2.63,1.52A.74.74,0,0,1,152.28,331.79Zm7-4.05a.75.75,0,0,1-.37-1.4l2.63-1.52a.74.74,0,0,1,1,.27.75.75,0,0,1-.27,1l-2.63,1.52A.86.86,0,0,1,159.29,327.74Zm7-4.05a.76.76,0,0,1-.65-.38.74.74,0,0,1,.27-1l2.63-1.52a.75.75,0,1,1,.75,1.3l-2.63,1.51A.7.7,0,0,1,166.31,323.69Zm7-4.06a.73.73,0,0,1-.65-.37.75.75,0,0,1,.27-1l2.63-1.51a.75.75,0,1,1,.75,1.29l-2.63,1.52A.74.74,0,0,1,173.33,319.63Zm7-4.05a.75.75,0,0,1-.65-.37.76.76,0,0,1,.28-1l2.63-1.52a.75.75,0,0,1,1,.28.74.74,0,0,1-.27,1l-2.63,1.52A.75.75,0,0,1,180.34,315.58Zm7-4.05a.75.75,0,0,1-.65-.37.76.76,0,0,1,.27-1l2.64-1.52a.75.75,0,0,1,1,.28.74.74,0,0,1-.27,1l-2.64,1.52A.69.69,0,0,1,187.36,311.53Z" style="fill:#737CEB"></path><path d="M76.42,375.58a.74.74,0,0,1-.75-.75v-1.5a.75.75,0,0,1,1.5,0v.2l.17-.1a.76.76,0,0,1,1,.28.74.74,0,0,1-.28,1l-1.3.75A.69.69,0,0,1,76.42,375.58Z" style="fill:#737CEB"></path><path d="M76.42,369.14a.75.75,0,0,1-.75-.75v-3a.75.75,0,0,1,1.5,0v3A.75.75,0,0,1,76.42,369.14Zm0-7.9a.76.76,0,0,1-.75-.75v-3a.75.75,0,0,1,1.5,0v3A.76.76,0,0,1,76.42,361.24Zm0-7.9a.76.76,0,0,1-.75-.75v-3a.75.75,0,0,1,1.5,0v3A.76.76,0,0,1,76.42,353.34Zm0-7.91h0a.75.75,0,0,1-.75-.75v-3a.75.75,0,0,1,.75-.75h0a.75.75,0,0,1,.75.75v3A.75.75,0,0,1,76.42,345.43Zm0-7.9a.76.76,0,0,1-.75-.75v-3a.75.75,0,0,1,1.5,0v3A.76.76,0,0,1,76.42,337.53Zm0-7.9a.76.76,0,0,1-.75-.75v-3a.75.75,0,0,1,1.5,0v3A.76.76,0,0,1,76.42,329.63Zm0-7.91a.75.75,0,0,1-.75-.75v-3a.75.75,0,0,1,1.5,0v3A.75.75,0,0,1,76.42,321.72Zm0-7.9a.76.76,0,0,1-.75-.75v-3a.75.75,0,0,1,1.5,0v3A.76.76,0,0,1,76.42,313.82Zm0-7.9a.76.76,0,0,1-.75-.75v-3a.75.75,0,0,1,1.5,0v3A.76.76,0,0,1,76.42,305.92Zm0-7.91h0a.75.75,0,0,1-.75-.75v-3a.75.75,0,0,1,.75-.75h0a.74.74,0,0,1,.75.75v3A.75.75,0,0,1,76.42,298Zm0-7.9a.76.76,0,0,1-.75-.75v-3a.75.75,0,0,1,1.5,0v3A.76.76,0,0,1,76.42,290.11Zm0-7.91a.75.75,0,0,1-.75-.75v-3a.75.75,0,0,1,1.5,0v3A.75.75,0,0,1,76.42,282.2Zm0-7.9a.75.75,0,0,1-.75-.75v-3a.75.75,0,0,1,1.5,0v3A.75.75,0,0,1,76.42,274.3Zm0-7.9a.76.76,0,0,1-.75-.75v-3a.75.75,0,0,1,1.5,0v3A.76.76,0,0,1,76.42,266.4Zm0-7.91a.75.75,0,0,1-.75-.75v-3a.75.75,0,0,1,1.5,0v3A.75.75,0,0,1,76.42,258.49Zm0-7.9a.76.76,0,0,1-.75-.75v-3a.75.75,0,0,1,1.5,0v3A.76.76,0,0,1,76.42,250.59Zm0-7.9a.76.76,0,0,1-.75-.75v-3a.75.75,0,0,1,1.5,0v3A.75.75,0,0,1,76.42,242.69Zm0-7.91a.75.75,0,0,1-.75-.75v-3a.75.75,0,0,1,1.5,0v3A.74.74,0,0,1,76.42,234.78Zm0-7.9a.76.76,0,0,1-.75-.75v-3a.75.75,0,0,1,1.5,0v3A.75.75,0,0,1,76.42,226.88Z" style="fill:#737CEB"></path><path d="M127.72,263.39a1,1,0,0,1-.5-.13,1,1,0,0,1-.5-.87v-9.32a1,1,0,0,1,2,0v7.59l14.66-8.47v-8.74a1,1,0,0,1,2,0v9.32a1,1,0,0,1-.5.87l-16.66,9.62A1,1,0,0,1,127.72,263.39Z" style="fill:#737CEB"></path><path d="M130.79,245.85a1.13,1.13,0,0,1-.36-.06,1,1,0,0,1-.57-1.3l5-13a1,1,0,0,1,.82-.63,1,1,0,0,1,.94.42l5,7.19a1,1,0,0,1-.25,1.39,1,1,0,0,1-1.39-.25L136,234l-4.31,11.19A1,1,0,0,1,130.79,245.85Z" style="fill:#737CEB"></path><path d="M135.79,252.46a1,1,0,0,1-1-1V233.4a1,1,0,0,1,2,0v18.06A1,1,0,0,1,135.79,252.46Z" style="fill:#737CEB"></path><path d="M114.11,297,158,271.64c1.3-.75,2.35-.14,2.35,1.36v12.39a5.22,5.22,0,0,1-2.35,4.08L114.11,314.8c-1.3.75-2.35.14-2.35-1.36V301.05A5.21,5.21,0,0,1,114.11,297Z" style="fill:#737CEB"></path><path d="M121.22,298.62a.67.67,0,0,1,.08-.33.49.49,0,0,1,.18-.23l.74-.43a.15.15,0,0,1,.19,0,.33.33,0,0,1,.08.24v3.82a2.54,2.54,0,0,0,.25,1.31c.17.26.44.28.82.07a1.94,1.94,0,0,0,.79-1,4.49,4.49,0,0,0,.27-1.61v-3.83a.8.8,0,0,1,.08-.33.47.47,0,0,1,.19-.22l.74-.43a.14.14,0,0,1,.19,0,.33.33,0,0,1,.08.24v7a.8.8,0,0,1-.08.33.57.57,0,0,1-.19.23l-.74.43a.15.15,0,0,1-.19,0,.33.33,0,0,1-.08-.24v-.35a5.89,5.89,0,0,1-.56.95,2.45,2.45,0,0,1-.8.74,1.6,1.6,0,0,1-1,.28.89.89,0,0,1-.62-.4,2.35,2.35,0,0,1-.34-.93,8.56,8.56,0,0,1-.09-1.3Z" style="fill:#fafafa"></path><path d="M130,301.13a1.79,1.79,0,0,1-.55.22,1,1,0,0,1-.42,0,1,1,0,0,1-.31-.11,1.2,1.2,0,0,1-.2-.18v3.21a.8.8,0,0,1-.08.33.5.5,0,0,1-.19.23l-.74.43a.15.15,0,0,1-.19,0,.36.36,0,0,1-.07-.25v-9.88a.78.78,0,0,1,.07-.33.57.57,0,0,1,.19-.23l.74-.43a.15.15,0,0,1,.19,0,.37.37,0,0,1,.08.25v.34c0-.12.12-.26.2-.41a5.41,5.41,0,0,1,.31-.47,3.63,3.63,0,0,1,.42-.47,2.51,2.51,0,0,1,.55-.4,1.29,1.29,0,0,1,.88-.22,1.08,1.08,0,0,1,.68.39,2.5,2.5,0,0,1,.44.88,5.5,5.5,0,0,1,.18,1.23c0,.14,0,.32,0,.52s0,.38,0,.53a9.14,9.14,0,0,1-.18,1.44,8.25,8.25,0,0,1-.44,1.38,5.43,5.43,0,0,1-.68,1.18A3.14,3.14,0,0,1,130,301.13Zm.91-4.17a5.89,5.89,0,0,0,0-.84c0-.63-.17-1-.4-1.19a.71.71,0,0,0-.81,0,2.21,2.21,0,0,0-.81.91,3.61,3.61,0,0,0-.37,1.46,5.16,5.16,0,0,0,0,.59,4.45,4.45,0,0,0,0,.56,1.43,1.43,0,0,0,.37,1,.67.67,0,0,0,.81,0,2.12,2.12,0,0,0,.81-.9A3.78,3.78,0,0,0,130.91,297Z" style="fill:#fafafa"></path><path d="M134.58,297.93a.8.8,0,0,1-.08.33.57.57,0,0,1-.19.23l-.74.43c-.08,0-.14,0-.19,0a.37.37,0,0,1-.08-.25v-9.88a.8.8,0,0,1,.08-.33.45.45,0,0,1,.19-.23l.74-.43a.15.15,0,0,1,.19,0,.33.33,0,0,1,.08.24Z" style="fill:#fafafa"></path><path d="M138.17,288.28a2,2,0,0,1,1-.31,1.17,1.17,0,0,1,.75.27,1.76,1.76,0,0,1,.51.76,3.64,3.64,0,0,1,.22,1.17,3.33,3.33,0,0,1,0,.34v.84c0,.14,0,.25,0,.35a7,7,0,0,1-.22,1.42,6.74,6.74,0,0,1-.51,1.34,5.62,5.62,0,0,1-.75,1.14,3.71,3.71,0,0,1-1,.81,2,2,0,0,1-1,.31,1.11,1.11,0,0,1-.75-.27,1.68,1.68,0,0,1-.5-.75,3.92,3.92,0,0,1-.23-1.17,3,3,0,0,1,0-.33c0-.13,0-.27,0-.41s0-.28,0-.42,0-.26,0-.36a6.35,6.35,0,0,1,.22-1.42,7.24,7.24,0,0,1,.51-1.35,5.36,5.36,0,0,1,.75-1.14A3.6,3.6,0,0,1,138.17,288.28Zm1.18,2.7a2.13,2.13,0,0,0-.14-.69.72.72,0,0,0-.28-.33.55.55,0,0,0-.36,0,1.38,1.38,0,0,0-.4.17,1.82,1.82,0,0,0-.4.3,1.86,1.86,0,0,0-.37.45,3.53,3.53,0,0,0-.28.65,4.18,4.18,0,0,0-.14.86,2.91,2.91,0,0,0,0,.31c0,.12,0,.25,0,.38s0,.26,0,.38a2.27,2.27,0,0,0,0,.29,2.13,2.13,0,0,0,.14.69.72.72,0,0,0,.28.33.51.51,0,0,0,.37,0,1.85,1.85,0,0,0,.4-.16,2.61,2.61,0,0,0,.4-.3,2.16,2.16,0,0,0,.36-.46,3.26,3.26,0,0,0,.28-.65,4.18,4.18,0,0,0,.14-.86,2.45,2.45,0,0,0,0-.3v-.76A2.63,2.63,0,0,0,139.35,291Z" style="fill:#fafafa"></path><path d="M141.75,288.29a3.31,3.31,0,0,1,.18-.78,4.77,4.77,0,0,1,.4-.91,4.44,4.44,0,0,1,.64-.89,3.52,3.52,0,0,1,.87-.71,2.18,2.18,0,0,1,.9-.32,1,1,0,0,1,.69.2,1.52,1.52,0,0,1,.45.73,4.56,4.56,0,0,1,.15,1.27v4.43a.75.75,0,0,1-.07.33.51.51,0,0,1-.19.23l-.74.43c-.08,0-.14,0-.19,0a.33.33,0,0,1-.08-.24v-.5a4.66,4.66,0,0,1-.59,1.09,3.32,3.32,0,0,1-1,.88,1.91,1.91,0,0,1-.76.26.79.79,0,0,1-.55-.17,1.09,1.09,0,0,1-.35-.55,2.7,2.7,0,0,1-.13-.87,4,4,0,0,1,.48-1.9,5.38,5.38,0,0,1,1.29-1.54l1.59-1.34c0-.41-.09-.65-.26-.72a.77.77,0,0,0-.66.12,1.22,1.22,0,0,0-.38.32,3,3,0,0,0-.26.44,1.3,1.3,0,0,1-.17.26.43.43,0,0,1-.16.14l-.91.53c-.06,0-.12,0-.16,0S141.73,288.4,141.75,288.29Zm1.63,3.3a2.26,2.26,0,0,0,.59-.48,2.8,2.8,0,0,0,.44-.64,3,3,0,0,0,.26-.69,2.75,2.75,0,0,0,.09-.67V289l-1.33,1.13a2.72,2.72,0,0,0-.58.64,1.37,1.37,0,0,0-.17.65c0,.21.07.33.21.35A.79.79,0,0,0,143.38,291.59Z" style="fill:#fafafa"></path><path d="M149.29,281.85a2,2,0,0,1,.55-.22,1.23,1.23,0,0,1,.42,0,.77.77,0,0,1,.31.12.88.88,0,0,1,.2.18V278.7a.84.84,0,0,1,.08-.34.46.46,0,0,1,.18-.22l.75-.43a.15.15,0,0,1,.19,0,.33.33,0,0,1,.07.24v9.89a.78.78,0,0,1-.07.33.53.53,0,0,1-.19.22l-.75.43a.13.13,0,0,1-.18,0,.33.33,0,0,1-.08-.24v-.35c-.05.12-.12.26-.2.41a4.32,4.32,0,0,1-.31.48,4.44,4.44,0,0,1-.42.47,3.23,3.23,0,0,1-.55.4,1.34,1.34,0,0,1-.88.22,1.14,1.14,0,0,1-.68-.4,2.44,2.44,0,0,1-.44-.87,4.67,4.67,0,0,1-.18-1.23c0-.15,0-.32,0-.52s0-.38,0-.54a7.18,7.18,0,0,1,.18-1.43,8.67,8.67,0,0,1,.44-1.39,5.6,5.6,0,0,1,.68-1.17A3,3,0,0,1,149.29,281.85Zm-.91,4.18a5.89,5.89,0,0,0,0,.84c0,.63.17,1,.39,1.18a.71.71,0,0,0,.82,0,2.1,2.1,0,0,0,.8-.9,3.54,3.54,0,0,0,.38-1.47c0-.16,0-.35,0-.58s0-.42,0-.56a1.35,1.35,0,0,0-.38-1,.66.66,0,0,0-.8,0,2.33,2.33,0,0,0-.82.9A4,4,0,0,0,148.38,286Z" style="fill:#fafafa"></path><path d="M204.51,174.28a.54.54,0,0,1-.25-.06.5.5,0,0,1-.25-.44V143.19a.5.5,0,0,1,.25-.43l35.33-20.4a.5.5,0,0,1,.5,0,.48.48,0,0,1,.25.43v30.59a.5.5,0,0,1-.25.44l-35.33,20.4A.54.54,0,0,1,204.51,174.28Zm.5-30.8v29.44l34.33-19.82V123.66Z" style="fill:#737CEB"></path><path d="M204.51,168.17a.5.5,0,0,1-.44-.73l11.77-23.12a.5.5,0,0,1,.32-.25.48.48,0,0,1,.4.06l12.75,8.16a.5.5,0,0,1-.54.84l-12.29-7.86L205,167.9A.51.51,0,0,1,204.51,168.17Z" style="fill:#737CEB"></path><path d="M225.23,150.77a.57.57,0,0,1-.28-.08.5.5,0,0,1-.14-.69l6.23-9.54a.49.49,0,0,1,.68-.15l8.39,5.17a.51.51,0,0,1,.16.69.49.49,0,0,1-.69.16l-8-4.92-6,9.13A.48.48,0,0,1,225.23,150.77Z" style="fill:#737CEB"></path><path d="M223.93,143.08a1.76,1.76,0,0,1-.9-.24,2.24,2.24,0,0,1-1-2.06,6,6,0,0,1,2.77-4.78,2,2,0,0,1,3.26,1.88,6.06,6.06,0,0,1-2.76,4.79A2.86,2.86,0,0,1,223.93,143.08Zm2.25-6.49a1.78,1.78,0,0,0-.87.27,5.1,5.1,0,0,0-2.27,3.92,1.34,1.34,0,0,0,.49,1.2,1.36,1.36,0,0,0,1.28-.18,5.1,5.1,0,0,0,2.26-3.92,1.3,1.3,0,0,0-.49-1.19A.74.74,0,0,0,226.18,136.59Z" style="fill:#737CEB"></path><path d="M307,98.09l-1.27-1.23,1.41-3a.65.65,0,1,0-1.17-.55l-1.23,2.6-1-.93a.65.65,0,0,0-.9.94l1.27,1.23-1.41,3a.65.65,0,0,0,.31.87.67.67,0,0,0,.28.06.65.65,0,0,0,.58-.37l1.23-2.6,1,.92a.66.66,0,0,0,.45.18A.63.63,0,0,0,307,99,.64.64,0,0,0,307,98.09Z" style="fill:#455a64"></path><path d="M245.87,142.44c0,1.41,1.06,1.94,2.36,1.19l52.71-30.43a5,5,0,0,0,2.35-3.91c0-1.41-1.05-1.94-2.35-1.19l-52.71,30.43A5.05,5.05,0,0,0,245.87,142.44Z" style="fill:#e0e0e0"></path><path d="M245.87,142.44c0,1.41,1.06,1.94,2.36,1.19l29.43-17a5,5,0,0,0,2.35-3.91c0-1.41-1.05-1.94-2.35-1.19l-29.43,17A5.05,5.05,0,0,0,245.87,142.44Z" style="fill:#737CEB"></path><path d="M246.64,125.91a.1.1,0,0,1,.13,0,.24.24,0,0,1,.06.18v.85a.53.53,0,0,1-.06.24.36.36,0,0,1-.13.16l-.61.35a.09.09,0,0,1-.13,0,.21.21,0,0,1-.06-.17v-.85a.53.53,0,0,1,.06-.24.31.31,0,0,1,.13-.16Zm.15,7.33a.69.69,0,0,1,0,.24.41.41,0,0,1-.14.17l-.53.31a.14.14,0,0,1-.14,0,.24.24,0,0,1-.05-.18V128.7a.5.5,0,0,1,.05-.23.35.35,0,0,1,.14-.17l.53-.31a.11.11,0,0,1,.14,0,.3.3,0,0,1,0,.18Z" style="fill:#455a64"></path><path d="M248.68,127.33a4.11,4.11,0,0,1,.41-.72,2,2,0,0,1,.51-.46.92.92,0,0,1,.72-.16.78.78,0,0,1,.45.41,3.43,3.43,0,0,1,.23-.52,3,3,0,0,1,.28-.46,2.88,2.88,0,0,1,.31-.36,2,2,0,0,1,.32-.24,1,1,0,0,1,.67-.19.69.69,0,0,1,.44.31,1.65,1.65,0,0,1,.23.67,5.53,5.53,0,0,1,.07.94v2.92a.53.53,0,0,1-.06.24.34.34,0,0,1-.13.17l-.54.31a.1.1,0,0,1-.13,0,.24.24,0,0,1-.06-.18v-2.87a1.48,1.48,0,0,0-.18-.92c-.13-.13-.3-.13-.52,0a1.29,1.29,0,0,0-.48.56,2.58,2.58,0,0,0-.22,1.12v2.92a.69.69,0,0,1-.05.24.41.41,0,0,1-.14.17l-.54.31a.12.12,0,0,1-.13,0,.24.24,0,0,1-.06-.18v-2.87a1.54,1.54,0,0,0-.18-.93c-.12-.12-.29-.12-.51,0a1.27,1.27,0,0,0-.5.58,2.6,2.6,0,0,0-.21,1.15v2.87a.52.52,0,0,1-.05.24.36.36,0,0,1-.13.16l-.54.31a.11.11,0,0,1-.14,0,.25.25,0,0,1,0-.17v-5.07a.69.69,0,0,1,0-.24.38.38,0,0,1,.14-.16l.54-.31a.09.09,0,0,1,.13,0s.05.09.05.17Z" style="fill:#455a64"></path><path d="M254.26,125a2.93,2.93,0,0,1,.13-.56,3.61,3.61,0,0,1,.75-1.3,2.61,2.61,0,0,1,.63-.51,1.65,1.65,0,0,1,.65-.23.77.77,0,0,1,.5.14,1.17,1.17,0,0,1,.32.53,3.35,3.35,0,0,1,.11.92v3.2a.53.53,0,0,1-.06.24.31.31,0,0,1-.13.16l-.54.31a.09.09,0,0,1-.13,0,.22.22,0,0,1-.06-.17v-.36a3.49,3.49,0,0,1-.42.78,2.26,2.26,0,0,1-.71.63,1.29,1.29,0,0,1-.55.19.55.55,0,0,1-.4-.12.85.85,0,0,1-.25-.39,1.91,1.91,0,0,1-.09-.63,2.76,2.76,0,0,1,.35-1.37,3.9,3.9,0,0,1,.92-1.11l1.15-1c0-.3-.06-.47-.19-.52a.55.55,0,0,0-.47.09.81.81,0,0,0-.28.23,2.25,2.25,0,0,0-.19.32,1.18,1.18,0,0,1-.11.18.35.35,0,0,1-.12.1l-.66.38a.11.11,0,0,1-.12,0A.19.19,0,0,1,254.26,125Zm1.18,2.39a1.57,1.57,0,0,0,.42-.35,2.37,2.37,0,0,0,.32-.46,2.56,2.56,0,0,0,.19-.5,2.1,2.1,0,0,0,.06-.48v-.11l-1,.81a1.7,1.7,0,0,0-.41.47.85.85,0,0,0-.13.47q0,.22.15.24A.53.53,0,0,0,255.44,127.35Z" style="fill:#455a64"></path><path d="M259.89,127.06a1.62,1.62,0,0,0,.31-.25,2,2,0,0,0,.28-.38,3,3,0,0,0,.21-.51,2.35,2.35,0,0,0,.08-.6v-.4q-.06.14-.15.3a2.77,2.77,0,0,1-.22.34,3.17,3.17,0,0,1-.3.34,2,2,0,0,1-.4.29,1,1,0,0,1-.64.16.76.76,0,0,1-.48-.29,1.7,1.7,0,0,1-.32-.63,3.4,3.4,0,0,1-.13-.89c0-.1,0-.23,0-.37s0-.27,0-.39a5.28,5.28,0,0,1,.13-1,5.09,5.09,0,0,1,.32-1,3.68,3.68,0,0,1,.48-.85,2.17,2.17,0,0,1,.64-.58,1.15,1.15,0,0,1,.4-.16.62.62,0,0,1,.3,0,.48.48,0,0,1,.22.08l.15.12v-.24a.53.53,0,0,1,.06-.24.34.34,0,0,1,.13-.17l.54-.31a.1.1,0,0,1,.13,0,.24.24,0,0,1,.06.18v5.09a4.9,4.9,0,0,1-.48,2.26,3.34,3.34,0,0,1-1.32,1.43,1.67,1.67,0,0,1-.66.24.94.94,0,0,1-.54-.08.87.87,0,0,1-.36-.35,1.18,1.18,0,0,1-.15-.55.57.57,0,0,1,.06-.24.32.32,0,0,1,.14-.16l.48-.28a.12.12,0,0,1,.17,0l.11.12a.4.4,0,0,0,.26.16A.93.93,0,0,0,259.89,127.06Zm-.84-3.73a3.11,3.11,0,0,0,0,.61c0,.45.12.74.28.85a.5.5,0,0,0,.59,0,1.62,1.62,0,0,0,.58-.65,2.63,2.63,0,0,0,.27-1.06c0-.11,0-.25,0-.42s0-.3,0-.41a1,1,0,0,0-.27-.73.48.48,0,0,0-.58,0,1.57,1.57,0,0,0-.59.65A2.73,2.73,0,0,0,259.05,123.33Z" style="fill:#455a64"></path><path d="M262.48,121.65a6.21,6.21,0,0,1,.12-1.21,5.05,5.05,0,0,1,.35-1.14,4.52,4.52,0,0,1,.54-.94,2.52,2.52,0,0,1,.72-.64,1.08,1.08,0,0,1,.71-.19.8.8,0,0,1,.55.28,1.61,1.61,0,0,1,.35.68,3.71,3.71,0,0,1,.13,1V120a.46.46,0,0,1-.06.23.4.4,0,0,1-.13.17l-2.36,1.36a1.09,1.09,0,0,0,.06.4.51.51,0,0,0,.18.22.41.41,0,0,0,.27,0,.79.79,0,0,0,.3-.11,1.56,1.56,0,0,0,.37-.28,2.06,2.06,0,0,0,.23-.31,1.4,1.4,0,0,1,.13-.2.5.5,0,0,1,.13-.11l.57-.32a.09.09,0,0,1,.13,0,.21.21,0,0,1,.06.17,2.63,2.63,0,0,1-.11.46,3.37,3.37,0,0,1-.31.64,3.89,3.89,0,0,1-.51.68,2.69,2.69,0,0,1-.69.57,1.24,1.24,0,0,1-.72.2.77.77,0,0,1-.54-.29,1.61,1.61,0,0,1-.35-.73A4.52,4.52,0,0,1,262.48,121.65Zm1.73-2.63a1.27,1.27,0,0,0-.35.3,1.36,1.36,0,0,0-.24.38,2.05,2.05,0,0,0-.16.41,3.26,3.26,0,0,0-.06.38l1.59-.92a1.67,1.67,0,0,0-.05-.31.54.54,0,0,0-.13-.25.32.32,0,0,0-.23-.11A.72.72,0,0,0,264.21,119Z" style="fill:#455a64"></path><path d="M266.77,122.65a.09.09,0,0,1-.13,0,.21.21,0,0,1-.06-.17v-.72a.53.53,0,0,1,.06-.24.31.31,0,0,1,.13-.16L270.9,119a.12.12,0,0,1,.14,0,.24.24,0,0,1,0,.18v.71a.52.52,0,0,1,0,.24.41.41,0,0,1-.14.17Z" style="fill:#455a64"></path><path d="M271.63,114a.23.23,0,0,1,0-.19.55.55,0,0,1,.07-.24l1.53-2.74.12-.2a.4.4,0,0,1,.13-.13l.55-.32a.09.09,0,0,1,.13,0,.22.22,0,0,1,.06.17v7a.53.53,0,0,1-.06.24.31.31,0,0,1-.13.16l-.57.33a.11.11,0,0,1-.14,0,.25.25,0,0,1,0-.17v-5.37l-1,1.78c0,.08-.08.13-.13.14a.1.1,0,0,1-.13,0Z" style="fill:#455a64"></path><path d="M204.51,216.54a.45.45,0,0,1-.25-.07A.48.48,0,0,1,204,216v-30.6a.52.52,0,0,1,.25-.43l35.33-20.4a.5.5,0,0,1,.75.43v30.6a.48.48,0,0,1-.25.43l-35.33,20.4A.45.45,0,0,1,204.51,216.54Zm.5-30.81v29.44l34.33-19.82V165.91Z" style="fill:#737CEB"></path><path d="M204.51,210.42a.48.48,0,0,1-.23,0,.5.5,0,0,1-.21-.67l11.77-23.12a.51.51,0,0,1,.72-.2l12.75,8.16a.5.5,0,0,1,.15.69.49.49,0,0,1-.69.15l-12.29-7.86L205,210.15A.51.51,0,0,1,204.51,210.42Z" style="fill:#737CEB"></path><path d="M225.23,193a.48.48,0,0,1-.28-.08.5.5,0,0,1-.14-.69l6.23-9.54a.5.5,0,0,1,.68-.15l8.39,5.18a.5.5,0,1,1-.53.85l-8-4.92-6,9.13A.49.49,0,0,1,225.23,193Z" style="fill:#737CEB"></path><path d="M223.93,185.33a1.85,1.85,0,0,1-.9-.23,2.24,2.24,0,0,1-1-2.06,6,6,0,0,1,2.77-4.79,2,2,0,0,1,3.26,1.88,6,6,0,0,1-2.76,4.79A2.86,2.86,0,0,1,223.93,185.33Zm2.25-6.49a1.8,1.8,0,0,0-.87.28A5.08,5.08,0,0,0,223,183a1.05,1.05,0,0,0,1.77,1,5.08,5.08,0,0,0,2.26-3.92,1.32,1.32,0,0,0-.49-1.19A.74.74,0,0,0,226.18,178.84Z" style="fill:#737CEB"></path><path d="M307,140.34l-1.27-1.23,1.41-3a.65.65,0,1,0-1.17-.56l-1.23,2.6-1-.92a.65.65,0,1,0-.9.93l1.27,1.23-1.41,3a.64.64,0,0,0,.31.86.67.67,0,0,0,.28.06.63.63,0,0,0,.58-.37l1.23-2.6,1,.93a.65.65,0,0,0,.92,0A.65.65,0,0,0,307,140.34Z" style="fill:#455a64"></path><path d="M245.87,184.7c0,1.4,1.06,1.94,2.36,1.19l52.71-30.44a5,5,0,0,0,2.35-3.91c0-1.4-1.05-1.94-2.35-1.19l-52.71,30.44A5.05,5.05,0,0,0,245.87,184.7Z" style="fill:#e0e0e0"></path><path d="M245.87,184.7c0,1.4,1.06,1.94,2.36,1.19L287.89,163a5.08,5.08,0,0,0,2.36-3.91c0-1.41-1.06-2-2.36-1.19l-39.66,22.9A5.05,5.05,0,0,0,245.87,184.7Z" style="fill:#737CEB"></path><path d="M246.64,168.16a.09.09,0,0,1,.13,0,.22.22,0,0,1,.06.17v.85a.53.53,0,0,1-.06.24.4.4,0,0,1-.13.17L246,170a.1.1,0,0,1-.13,0,.24.24,0,0,1-.06-.18v-.85a.53.53,0,0,1,.06-.23.34.34,0,0,1,.13-.17Zm.15,7.34a.69.69,0,0,1,0,.24.38.38,0,0,1-.14.16l-.53.31c-.06,0-.1,0-.14,0s-.05-.09-.05-.17V171a.52.52,0,0,1,.05-.24.32.32,0,0,1,.14-.16l.53-.31a.11.11,0,0,1,.14,0,.25.25,0,0,1,0,.17Z" style="fill:#455a64"></path><path d="M248.68,169.59a3.49,3.49,0,0,1,.41-.72,1.79,1.79,0,0,1,.51-.46.93.93,0,0,1,.72-.17.8.8,0,0,1,.45.42,3,3,0,0,1,.23-.52,2.56,2.56,0,0,1,.28-.46,2.88,2.88,0,0,1,.31-.36,1.65,1.65,0,0,1,.32-.25,1.09,1.09,0,0,1,.67-.18.69.69,0,0,1,.44.31,1.6,1.6,0,0,1,.23.67,5.37,5.37,0,0,1,.07.94v2.92a.53.53,0,0,1-.06.24.31.31,0,0,1-.13.16l-.54.31a.09.09,0,0,1-.13,0,.21.21,0,0,1-.06-.17v-2.87a1.54,1.54,0,0,0-.18-.93c-.13-.12-.3-.12-.52,0a1.23,1.23,0,0,0-.48.56,2.56,2.56,0,0,0-.22,1.11v2.93a.69.69,0,0,1-.05.24.38.38,0,0,1-.14.16l-.54.31a.09.09,0,0,1-.13,0,.21.21,0,0,1-.06-.17v-2.87a1.52,1.52,0,0,0-.18-.93q-.18-.18-.51,0a1.36,1.36,0,0,0-.5.59,2.58,2.58,0,0,0-.21,1.14v2.88a.46.46,0,0,1-.05.23.4.4,0,0,1-.13.17l-.54.31a.11.11,0,0,1-.14,0,.26.26,0,0,1,0-.17v-5.07a.69.69,0,0,1,0-.24.41.41,0,0,1,.14-.17l.54-.31a.1.1,0,0,1,.13,0,.24.24,0,0,1,.05.18Z" style="fill:#455a64"></path><path d="M254.26,167.22a3.2,3.2,0,0,1,.13-.57,3.33,3.33,0,0,1,.29-.65,3.14,3.14,0,0,1,.46-.64,2.39,2.39,0,0,1,.63-.51,1.5,1.5,0,0,1,.65-.23.67.67,0,0,1,.5.14,1.12,1.12,0,0,1,.32.53,3.33,3.33,0,0,1,.11.91v3.2a.53.53,0,0,1-.06.24.34.34,0,0,1-.13.17l-.54.31a.1.1,0,0,1-.13,0,.24.24,0,0,1-.06-.18v-.36a3.55,3.55,0,0,1-.42.79,2.53,2.53,0,0,1-.71.63,1.29,1.29,0,0,1-.55.19.55.55,0,0,1-.4-.12.85.85,0,0,1-.25-.39A2,2,0,0,1,254,170a2.83,2.83,0,0,1,.35-1.38,4.19,4.19,0,0,1,.92-1.11l1.15-1c0-.29-.06-.47-.19-.52a.55.55,0,0,0-.47.09,1,1,0,0,0-.28.24,2.1,2.1,0,0,0-.19.31,1,1,0,0,1-.11.19l-.12.1-.66.38a.09.09,0,0,1-.12,0S254.25,167.3,254.26,167.22Zm1.18,2.39a1.61,1.61,0,0,0,.42-.36,2.31,2.31,0,0,0,.32-.45,2.64,2.64,0,0,0,.19-.51,2.1,2.1,0,0,0,.06-.48v-.11l-1,.82a1.83,1.83,0,0,0-.41.46.9.9,0,0,0-.13.47c0,.15,0,.24.15.25A.6.6,0,0,0,255.44,169.61Z" style="fill:#455a64"></path><path d="M259.89,169.32a1.62,1.62,0,0,0,.31-.25,2.44,2.44,0,0,0,.28-.39,3.26,3.26,0,0,0,.21-.5,2.35,2.35,0,0,0,.08-.6v-.4l-.15.3a2.77,2.77,0,0,1-.22.34l-.3.34a2.41,2.41,0,0,1-.4.29.94.94,0,0,1-.64.15.75.75,0,0,1-.48-.28,1.7,1.7,0,0,1-.32-.63,3.47,3.47,0,0,1-.13-.89c0-.11,0-.23,0-.38s0-.27,0-.38a5.38,5.38,0,0,1,.13-1,5.56,5.56,0,0,1,.32-1,3.83,3.83,0,0,1,.48-.84,2.21,2.21,0,0,1,.64-.59,1.75,1.75,0,0,1,.4-.16,1,1,0,0,1,.3,0,.49.49,0,0,1,.22.09l.15.12v-.25a.53.53,0,0,1,.06-.24A.31.31,0,0,1,261,162l.54-.31a.09.09,0,0,1,.13,0,.21.21,0,0,1,.06.17v5.1a4.93,4.93,0,0,1-.48,2.26,3.34,3.34,0,0,1-1.32,1.43,1.67,1.67,0,0,1-.66.24.94.94,0,0,1-.54-.09.84.84,0,0,1-.36-.34,1.21,1.21,0,0,1-.15-.55.53.53,0,0,1,.06-.24.35.35,0,0,1,.14-.17l.48-.27a.14.14,0,0,1,.17,0l.11.12a.4.4,0,0,0,.26.16A.82.82,0,0,0,259.89,169.32Zm-.84-3.73a3,3,0,0,0,0,.6,1.13,1.13,0,0,0,.28.86.53.53,0,0,0,.59,0,1.62,1.62,0,0,0,.58-.65,2.67,2.67,0,0,0,.27-1.06c0-.12,0-.26,0-.42s0-.3,0-.41a1,1,0,0,0-.27-.73.47.47,0,0,0-.58,0,1.51,1.51,0,0,0-.59.65A2.7,2.7,0,0,0,259.05,165.59Z" style="fill:#455a64"></path><path d="M262.48,163.91a6.31,6.31,0,0,1,.12-1.22,5.13,5.13,0,0,1,.35-1.13,4.28,4.28,0,0,1,.54-.94,2.72,2.72,0,0,1,.72-.65,1.21,1.21,0,0,1,.71-.19.89.89,0,0,1,.55.28,1.68,1.68,0,0,1,.35.68,3.71,3.71,0,0,1,.13,1v.49a.53.53,0,0,1-.06.24.31.31,0,0,1-.13.16L263.4,164a1.12,1.12,0,0,0,.06.4.58.58,0,0,0,.18.22.48.48,0,0,0,.27,0,.79.79,0,0,0,.3-.11,1.88,1.88,0,0,0,.37-.28,1.72,1.72,0,0,0,.23-.32,1.22,1.22,0,0,1,.13-.19.36.36,0,0,1,.13-.11l.57-.33a.1.1,0,0,1,.13,0,.23.23,0,0,1,.06.18,2.8,2.8,0,0,1-.11.45,3.44,3.44,0,0,1-.31.65,3.89,3.89,0,0,1-.51.68,2.87,2.87,0,0,1-.69.56,1.25,1.25,0,0,1-.72.21.81.81,0,0,1-.54-.29,1.66,1.66,0,0,1-.35-.73A4.57,4.57,0,0,1,262.48,163.91Zm1.73-2.63a1.42,1.42,0,0,0-.35.29,1.73,1.73,0,0,0-.24.38,2.41,2.41,0,0,0-.16.42,3,3,0,0,0-.06.38l1.59-.92a1.77,1.77,0,0,0-.05-.32.66.66,0,0,0-.13-.25.31.31,0,0,0-.23-.1A.63.63,0,0,0,264.21,161.28Z" style="fill:#455a64"></path><path d="M266.77,164.91a.09.09,0,0,1-.13,0,.24.24,0,0,1-.06-.17V164a.53.53,0,0,1,.06-.24.34.34,0,0,1,.13-.17l4.13-2.38a.11.11,0,0,1,.14,0s0,.09,0,.17v.72a.52.52,0,0,1,0,.24.38.38,0,0,1-.14.16Z" style="fill:#455a64"></path><path d="M274.05,155.79a2.63,2.63,0,0,0,.28-.69,2.78,2.78,0,0,0,.06-.54,1,1,0,0,0-.18-.65c-.12-.14-.31-.13-.59,0a1.42,1.42,0,0,0-.57.62,4,4,0,0,0-.25.9.67.67,0,0,1-.09.26.49.49,0,0,1-.12.15l-.56.32a.12.12,0,0,1-.14,0,.22.22,0,0,1-.05-.19,4.51,4.51,0,0,1,.16-1,4.63,4.63,0,0,1,.38-1,4.06,4.06,0,0,1,.55-.84,2.48,2.48,0,0,1,.69-.58,1.27,1.27,0,0,1,.77-.23.88.88,0,0,1,.53.27,1.43,1.43,0,0,1,.32.6,2.9,2.9,0,0,1,.1.79c0,.19,0,.36,0,.53a3.76,3.76,0,0,1-.1.55,4.59,4.59,0,0,1-.23.64,7.18,7.18,0,0,1-.39.8l-1.31,2.59,2-1.13c.06,0,.1,0,.14,0a.22.22,0,0,1,.06.17V159a.46.46,0,0,1-.06.23.35.35,0,0,1-.14.17l-3.29,1.9a.11.11,0,0,1-.14,0s-.05-.09-.05-.17v-.66a.86.86,0,0,1,.07-.36.91.91,0,0,1,.12-.26Z" style="fill:#455a64"></path><path d="M204.51,259.88a.45.45,0,0,1-.25-.07.48.48,0,0,1-.25-.43V228.79a.52.52,0,0,1,.25-.44L239.59,208a.55.55,0,0,1,.5,0,.5.5,0,0,1,.25.44V239a.5.5,0,0,1-.25.44l-35.33,20.39A.45.45,0,0,1,204.51,259.88Zm.5-30.8v29.43l34.33-19.82V209.25Z" style="fill:#737CEB"></path><path d="M204.51,253.77a.5.5,0,0,1-.44-.73l11.77-23.12a.51.51,0,0,1,.72-.19l12.75,8.16a.5.5,0,1,1-.54.84l-12.29-7.86L205,253.49A.5.5,0,0,1,204.51,253.77Z" style="fill:#737CEB"></path><path d="M225.23,236.37a.57.57,0,0,1-.28-.08.51.51,0,0,1-.14-.7l6.23-9.53a.5.5,0,0,1,.68-.16l8.39,5.18a.51.51,0,0,1,.16.69.49.49,0,0,1-.69.16l-8-4.92-6,9.13A.48.48,0,0,1,225.23,236.37Z" style="fill:#737CEB"></path><path d="M223.93,228.68a1.76,1.76,0,0,1-.9-.24,2.24,2.24,0,0,1-1-2.06,6,6,0,0,1,2.77-4.79,2,2,0,0,1,3.26,1.89,6,6,0,0,1-2.76,4.78A2.77,2.77,0,0,1,223.93,228.68Zm2.25-6.49a1.78,1.78,0,0,0-.87.27,5.08,5.08,0,0,0-2.27,3.92,1.3,1.3,0,0,0,.49,1.19,1.32,1.32,0,0,0,1.28-.17,5.12,5.12,0,0,0,2.26-3.92,1.34,1.34,0,0,0-.49-1.2A.84.84,0,0,0,226.18,222.19Z" style="fill:#737CEB"></path><path d="M307,183.68l-1.27-1.23,1.41-3a.64.64,0,0,0-.31-.86.63.63,0,0,0-.86.31l-1.23,2.6-1-.93a.65.65,0,0,0-.92,0,.64.64,0,0,0,0,.91l1.27,1.23-1.41,3a.64.64,0,0,0,.31.86.55.55,0,0,0,.28.07.64.64,0,0,0,.58-.38l1.23-2.6,1,.93a.65.65,0,0,0,.92,0A.65.65,0,0,0,307,183.68Z" style="fill:#455a64"></path><path d="M245.87,228c0,1.41,1.06,1.94,2.36,1.19l52.71-30.43a5,5,0,0,0,2.35-3.91c0-1.41-1.05-1.94-2.35-1.19l-52.71,30.43A5.05,5.05,0,0,0,245.87,228Z" style="fill:#e0e0e0"></path><path d="M245.87,228c0,1.41,1.06,1.94,2.36,1.19l16.48-9.51a5,5,0,0,0,2.35-3.91c0-1.41-1.05-1.94-2.35-1.19l-16.48,9.51A5.05,5.05,0,0,0,245.87,228Z" style="fill:#737CEB"></path><path d="M246.64,211.51a.09.09,0,0,1,.13,0,.21.21,0,0,1,.06.17v.85a.53.53,0,0,1-.06.24.36.36,0,0,1-.13.16l-.61.35a.09.09,0,0,1-.13,0,.21.21,0,0,1-.06-.17v-.85a.53.53,0,0,1,.06-.24.31.31,0,0,1,.13-.16Zm.15,7.33a.69.69,0,0,1,0,.24.41.41,0,0,1-.14.17l-.53.31a.12.12,0,0,1-.14,0,.24.24,0,0,1-.05-.18v-5.06a.52.52,0,0,1,.05-.24.35.35,0,0,1,.14-.17l.53-.31a.12.12,0,0,1,.14,0,.3.3,0,0,1,0,.18Z" style="fill:#455a64"></path><path d="M248.68,212.93a4.11,4.11,0,0,1,.41-.72,2,2,0,0,1,.51-.46.92.92,0,0,1,.72-.16.78.78,0,0,1,.45.41,3.43,3.43,0,0,1,.23-.52,3,3,0,0,1,.28-.46,2.88,2.88,0,0,1,.31-.36,2,2,0,0,1,.32-.24,1,1,0,0,1,.67-.18.64.64,0,0,1,.44.3,1.64,1.64,0,0,1,.23.68,5.33,5.33,0,0,1,.07.93v2.93a.49.49,0,0,1-.06.23.34.34,0,0,1-.13.17l-.54.31a.09.09,0,0,1-.13,0,.22.22,0,0,1-.06-.17v-2.88a1.48,1.48,0,0,0-.18-.92c-.13-.13-.3-.13-.52,0a1.29,1.29,0,0,0-.48.56,2.58,2.58,0,0,0-.22,1.12v2.92a.69.69,0,0,1-.05.24.41.41,0,0,1-.14.17l-.54.31a.1.1,0,0,1-.13,0,.24.24,0,0,1-.06-.18v-2.87a1.54,1.54,0,0,0-.18-.93c-.12-.12-.29-.12-.51,0a1.32,1.32,0,0,0-.5.58,2.6,2.6,0,0,0-.21,1.15v2.87a.52.52,0,0,1-.05.24.36.36,0,0,1-.13.16l-.54.31a.11.11,0,0,1-.14,0,.25.25,0,0,1,0-.17v-5.07a.69.69,0,0,1,0-.24.38.38,0,0,1,.14-.16l.54-.31a.09.09,0,0,1,.13,0,.22.22,0,0,1,.05.17Z" style="fill:#455a64"></path><path d="M254.26,210.56a2.93,2.93,0,0,1,.13-.56,3.7,3.7,0,0,1,.29-.66,3.44,3.44,0,0,1,.46-.64,2.61,2.61,0,0,1,.63-.51,1.65,1.65,0,0,1,.65-.23.77.77,0,0,1,.5.14,1.17,1.17,0,0,1,.32.53,3.35,3.35,0,0,1,.11.92v3.2a.53.53,0,0,1-.06.24.31.31,0,0,1-.13.16l-.54.31a.09.09,0,0,1-.13,0,.22.22,0,0,1-.06-.17v-.36a3.29,3.29,0,0,1-.42.78,2.26,2.26,0,0,1-.71.63,1.29,1.29,0,0,1-.55.19.55.55,0,0,1-.4-.12.85.85,0,0,1-.25-.39,1.91,1.91,0,0,1-.09-.63,2.76,2.76,0,0,1,.35-1.37,3.9,3.9,0,0,1,.92-1.11l1.15-1c0-.3-.06-.47-.19-.52a.55.55,0,0,0-.47.09.81.81,0,0,0-.28.23,3,3,0,0,0-.19.32,1.18,1.18,0,0,1-.11.18.35.35,0,0,1-.12.1l-.66.38a.11.11,0,0,1-.12,0A.19.19,0,0,1,254.26,210.56Zm1.18,2.39a1.57,1.57,0,0,0,.42-.35,2.37,2.37,0,0,0,.32-.46,2.34,2.34,0,0,0,.19-.5,2.1,2.1,0,0,0,.06-.48v-.11l-1,.81a1.85,1.85,0,0,0-.41.47.85.85,0,0,0-.13.47c0,.15,0,.23.15.25A.62.62,0,0,0,255.44,213Z" style="fill:#455a64"></path><path d="M259.89,212.66a1.62,1.62,0,0,0,.31-.25,2,2,0,0,0,.28-.38,3,3,0,0,0,.21-.51,2.27,2.27,0,0,0,.08-.59v-.41q-.06.14-.15.3a2.17,2.17,0,0,1-.22.34,3.17,3.17,0,0,1-.3.34,2,2,0,0,1-.4.29,1,1,0,0,1-.64.16.76.76,0,0,1-.48-.29,1.62,1.62,0,0,1-.32-.63,3.39,3.39,0,0,1-.13-.88c0-.11,0-.24,0-.38s0-.27,0-.39a5.38,5.38,0,0,1,.13-1,5.09,5.09,0,0,1,.32-1,3.68,3.68,0,0,1,.48-.85,2.31,2.31,0,0,1,.64-.58,1.39,1.39,0,0,1,.4-.16.62.62,0,0,1,.3,0,.48.48,0,0,1,.22.08.64.64,0,0,1,.15.13v-.25a.53.53,0,0,1,.06-.24.34.34,0,0,1,.13-.17l.54-.31a.1.1,0,0,1,.13,0,.24.24,0,0,1,.06.18v5.1a4.88,4.88,0,0,1-.48,2.25,3.34,3.34,0,0,1-1.32,1.43,1.67,1.67,0,0,1-.66.24.94.94,0,0,1-.54-.08.87.87,0,0,1-.36-.35,1.18,1.18,0,0,1-.15-.55.49.49,0,0,1,.06-.23.31.31,0,0,1,.14-.17l.48-.28a.12.12,0,0,1,.17,0l.11.12a.4.4,0,0,0,.26.16A.85.85,0,0,0,259.89,212.66Zm-.84-3.73a3.11,3.11,0,0,0,0,.61c0,.45.12.74.28.85a.5.5,0,0,0,.59,0,1.62,1.62,0,0,0,.58-.65,2.63,2.63,0,0,0,.27-1.06c0-.11,0-.25,0-.42s0-.3,0-.4a1,1,0,0,0-.27-.74.49.49,0,0,0-.58,0,1.57,1.57,0,0,0-.59.65A2.73,2.73,0,0,0,259.05,208.93Z" style="fill:#455a64"></path><path d="M262.48,207.25a6.21,6.21,0,0,1,.12-1.21,5.05,5.05,0,0,1,.35-1.14,4.52,4.52,0,0,1,.54-.94,2.52,2.52,0,0,1,.72-.64,1.14,1.14,0,0,1,.71-.19.84.84,0,0,1,.55.28,1.61,1.61,0,0,1,.35.68,3.71,3.71,0,0,1,.13,1v.49a.46.46,0,0,1-.06.23.35.35,0,0,1-.13.17l-2.36,1.36a1.09,1.09,0,0,0,.06.4.51.51,0,0,0,.18.22.41.41,0,0,0,.27,0,.76.76,0,0,0,.3-.1,1.9,1.9,0,0,0,.37-.29,1.66,1.66,0,0,0,.23-.31,1.4,1.4,0,0,1,.13-.2.34.34,0,0,1,.13-.1l.57-.33a.09.09,0,0,1,.13,0,.21.21,0,0,1,.06.17,2.63,2.63,0,0,1-.11.46,3.37,3.37,0,0,1-.31.64,4.36,4.36,0,0,1-.51.69,2.87,2.87,0,0,1-.69.56,1.24,1.24,0,0,1-.72.2.77.77,0,0,1-.54-.29,1.61,1.61,0,0,1-.35-.73A4.52,4.52,0,0,1,262.48,207.25Zm1.73-2.63a1.27,1.27,0,0,0-.35.3,1.36,1.36,0,0,0-.24.38,2.05,2.05,0,0,0-.16.41,3.26,3.26,0,0,0-.06.38l1.59-.92a1.67,1.67,0,0,0-.05-.31.54.54,0,0,0-.13-.25.32.32,0,0,0-.23-.11A.83.83,0,0,0,264.21,204.62Z" style="fill:#455a64"></path><path d="M266.77,208.25a.09.09,0,0,1-.13,0,.21.21,0,0,1-.06-.17v-.72a.53.53,0,0,1,.06-.24.31.31,0,0,1,.13-.16l4.13-2.39a.12.12,0,0,1,.14,0,.24.24,0,0,1,0,.18v.71a.52.52,0,0,1,0,.24.41.41,0,0,1-.14.17Z" style="fill:#455a64"></path><path d="M275.21,195.12c.06,0,.1,0,.14,0a.25.25,0,0,1,0,.17v.77a.63.63,0,0,1,0,.26c0,.08-.07.16-.1.23l-1,2.27a1.35,1.35,0,0,1,.57-.09.72.72,0,0,1,.44.2,1.07,1.07,0,0,1,.29.49,3,3,0,0,1,.1.79,3.93,3.93,0,0,1-.15,1.09,4.14,4.14,0,0,1-1,1.8,3.58,3.58,0,0,1-.76.6,2,2,0,0,1-.86.31.94.94,0,0,1-.61-.11.83.83,0,0,1-.36-.42,1.62,1.62,0,0,1-.15-.63.42.42,0,0,1,0-.24.37.37,0,0,1,.14-.16l.55-.32q.07,0,.12,0a.76.76,0,0,1,.1.15.54.54,0,0,0,.11.18.39.39,0,0,0,.19.1.63.63,0,0,0,.29,0,1.67,1.67,0,0,0,.43-.19,2,2,0,0,0,.7-.67,1.72,1.72,0,0,0,.26-.91c0-.32-.09-.51-.26-.55a1.14,1.14,0,0,0-.7.19l-.59.34a.09.09,0,0,1-.13,0,.21.21,0,0,1-.06-.17v-.77a.65.65,0,0,1,.06-.26c0-.09.07-.16.1-.23l1-2.17-1.95,1.12a.11.11,0,0,1-.14,0,.25.25,0,0,1-.05-.17v-.77a.69.69,0,0,1,.05-.24.41.41,0,0,1,.14-.17Z" style="fill:#455a64"></path><path d="M204.51,302.14a.55.55,0,0,1-.25-.07.5.5,0,0,1-.25-.43V271a.5.5,0,0,1,.25-.43l35.33-20.4a.5.5,0,0,1,.5,0,.48.48,0,0,1,.25.43v30.6a.48.48,0,0,1-.25.43l-35.33,20.4A.55.55,0,0,1,204.51,302.14Zm.5-30.81v29.44L239.34,281V251.51Z" style="fill:#737CEB"></path><path d="M204.51,296a.64.64,0,0,1-.23,0,.51.51,0,0,1-.21-.68l11.77-23.11a.52.52,0,0,1,.32-.26.48.48,0,0,1,.4.06l12.75,8.16a.5.5,0,1,1-.54.84l-12.29-7.86L205,295.75A.51.51,0,0,1,204.51,296Z" style="fill:#737CEB"></path><path d="M225.23,278.62a.48.48,0,0,1-.28-.08.5.5,0,0,1-.14-.69l6.23-9.54a.49.49,0,0,1,.68-.15l8.39,5.18a.5.5,0,0,1,.16.68.51.51,0,0,1-.69.17l-8-4.92-6,9.13A.49.49,0,0,1,225.23,278.62Z" style="fill:#737CEB"></path><path d="M223.93,270.93a1.76,1.76,0,0,1-.9-.24,2.21,2.21,0,0,1-1-2.06,6,6,0,0,1,2.77-4.78,2,2,0,0,1,3.26,1.88,6.06,6.06,0,0,1-2.76,4.79A2.86,2.86,0,0,1,223.93,270.93Zm2.25-6.49a1.7,1.7,0,0,0-.87.28,5.06,5.06,0,0,0-2.27,3.91,1.05,1.05,0,0,0,1.77,1,5.1,5.1,0,0,0,2.26-3.92,1.32,1.32,0,0,0-.49-1.19A.74.74,0,0,0,226.18,264.44Z" style="fill:#737CEB"></path><path d="M307,225.94l-1.27-1.23,1.41-3a.64.64,0,0,0-.31-.86.65.65,0,0,0-.86.31l-1.23,2.6-1-.93a.66.66,0,0,0-.92,0,.65.65,0,0,0,0,.92l1.27,1.23-1.41,3a.65.65,0,0,0,.31.87.67.67,0,0,0,.28.06.65.65,0,0,0,.58-.37l1.23-2.6,1,.93a.65.65,0,0,0,.92,0A.65.65,0,0,0,307,225.94Z" style="fill:#455a64"></path><path d="M245.87,270.29c0,1.41,1.06,1.94,2.36,1.19l52.71-30.43a5,5,0,0,0,2.35-3.91c0-1.41-1.05-1.94-2.35-1.19l-52.71,30.43A5.07,5.07,0,0,0,245.87,270.29Z" style="fill:#e0e0e0"></path><path d="M245.87,270.29c0,1.41,1.06,1.94,2.36,1.19L294.11,245a5.05,5.05,0,0,0,2.36-3.91c0-1.4-1.06-1.94-2.36-1.19l-45.88,26.49A5.07,5.07,0,0,0,245.87,270.29Z" style="fill:#737CEB"></path><path d="M246.64,253.76a.1.1,0,0,1,.13,0,.24.24,0,0,1,.06.17v.85a.53.53,0,0,1-.06.24.4.4,0,0,1-.13.17l-.61.35a.1.1,0,0,1-.13,0,.24.24,0,0,1-.06-.18v-.84a.53.53,0,0,1,.06-.24.34.34,0,0,1,.13-.17Zm.15,7.34a.69.69,0,0,1,0,.24.38.38,0,0,1-.14.16l-.53.31c-.06,0-.1,0-.14,0s-.05-.09-.05-.17v-5.07a.52.52,0,0,1,.05-.24.32.32,0,0,1,.14-.16l.53-.31a.11.11,0,0,1,.14,0,.25.25,0,0,1,0,.17Z" style="fill:#455a64"></path><path d="M248.68,255.19a3.49,3.49,0,0,1,.41-.72,1.79,1.79,0,0,1,.51-.46.92.92,0,0,1,.72-.16.78.78,0,0,1,.45.41,3,3,0,0,1,.23-.52,3,3,0,0,1,.28-.46,2.88,2.88,0,0,1,.31-.36,1.65,1.65,0,0,1,.32-.25,1.09,1.09,0,0,1,.67-.18.69.69,0,0,1,.44.31,1.6,1.6,0,0,1,.23.67,5.45,5.45,0,0,1,.07.94v2.92a.53.53,0,0,1-.06.24.34.34,0,0,1-.13.17l-.54.31a.1.1,0,0,1-.13,0,.21.21,0,0,1-.06-.17V255a1.54,1.54,0,0,0-.18-.93c-.13-.12-.3-.12-.52,0a1.23,1.23,0,0,0-.48.56,2.56,2.56,0,0,0-.22,1.11v2.93a.69.69,0,0,1-.05.24.38.38,0,0,1-.14.16l-.54.31a.09.09,0,0,1-.13,0,.21.21,0,0,1-.06-.17v-2.87a1.52,1.52,0,0,0-.18-.93c-.12-.12-.29-.12-.51,0a1.27,1.27,0,0,0-.5.58,2.6,2.6,0,0,0-.21,1.15V260a.52.52,0,0,1-.05.24.36.36,0,0,1-.13.16l-.54.31a.11.11,0,0,1-.14,0,.26.26,0,0,1,0-.17v-5.07a.69.69,0,0,1,0-.24.38.38,0,0,1,.14-.16l.54-.31a.1.1,0,0,1,.13,0,.24.24,0,0,1,.05.18Z" style="fill:#455a64"></path><path d="M254.26,252.82a3.2,3.2,0,0,1,.13-.57,3.33,3.33,0,0,1,.29-.65,3.14,3.14,0,0,1,.46-.64,2.61,2.61,0,0,1,.63-.51,1.5,1.5,0,0,1,.65-.23.67.67,0,0,1,.5.14,1.12,1.12,0,0,1,.32.53,3.35,3.35,0,0,1,.11.92V255a.53.53,0,0,1-.06.24.34.34,0,0,1-.13.17l-.54.31a.1.1,0,0,1-.13,0,.24.24,0,0,1-.06-.18v-.36a3.55,3.55,0,0,1-.42.79,2.53,2.53,0,0,1-.71.63,1.29,1.29,0,0,1-.55.19.55.55,0,0,1-.4-.12.85.85,0,0,1-.25-.39,2,2,0,0,1-.09-.63,2.83,2.83,0,0,1,.35-1.38,4.19,4.19,0,0,1,.92-1.11l1.15-1c0-.29-.06-.47-.19-.52a.55.55,0,0,0-.47.09,1,1,0,0,0-.28.24,2.81,2.81,0,0,0-.19.31,1,1,0,0,1-.11.19.53.53,0,0,1-.12.1l-.66.38a.09.09,0,0,1-.12,0S254.25,252.9,254.26,252.82Zm1.18,2.39a1.78,1.78,0,0,0,.42-.35,2.37,2.37,0,0,0,.32-.46,2.82,2.82,0,0,0,.19-.5,2.18,2.18,0,0,0,.06-.49v-.11l-1,.82a1.83,1.83,0,0,0-.41.46.9.9,0,0,0-.13.47c0,.15,0,.24.15.25A.6.6,0,0,0,255.44,255.21Z" style="fill:#455a64"></path><path d="M259.89,254.92a1.62,1.62,0,0,0,.31-.25,2.44,2.44,0,0,0,.28-.39,2.89,2.89,0,0,0,.21-.5,2.35,2.35,0,0,0,.08-.6v-.4q-.06.14-.15.3a2.77,2.77,0,0,1-.22.34l-.3.34a2.41,2.41,0,0,1-.4.29.94.94,0,0,1-.64.15.75.75,0,0,1-.48-.28,1.7,1.7,0,0,1-.32-.63,3.47,3.47,0,0,1-.13-.89c0-.1,0-.23,0-.38s0-.27,0-.38a5.48,5.48,0,0,1,.13-1,5.56,5.56,0,0,1,.32-1,3.83,3.83,0,0,1,.48-.84,2.17,2.17,0,0,1,.64-.58,1.45,1.45,0,0,1,.4-.17,1,1,0,0,1,.3,0,.49.49,0,0,1,.22.09l.15.12V248a.53.53,0,0,1,.06-.24.31.31,0,0,1,.13-.16l.54-.31a.09.09,0,0,1,.13,0,.22.22,0,0,1,.06.17v5.1a4.93,4.93,0,0,1-.48,2.26,3.34,3.34,0,0,1-1.32,1.43,1.67,1.67,0,0,1-.66.24,1,1,0,0,1-.54-.08.93.93,0,0,1-.36-.35,1.21,1.21,0,0,1-.15-.55.53.53,0,0,1,.06-.24.35.35,0,0,1,.14-.17l.48-.27a.14.14,0,0,1,.17,0l.11.12a.4.4,0,0,0,.26.16A.82.82,0,0,0,259.89,254.92Zm-.84-3.73a3.11,3.11,0,0,0,0,.61,1.12,1.12,0,0,0,.28.85.53.53,0,0,0,.59,0,1.62,1.62,0,0,0,.58-.65,2.67,2.67,0,0,0,.27-1.06c0-.12,0-.26,0-.42s0-.3,0-.41a1,1,0,0,0-.27-.73.48.48,0,0,0-.58,0,1.51,1.51,0,0,0-.59.65A2.73,2.73,0,0,0,259.05,251.19Z" style="fill:#455a64"></path><path d="M262.48,249.51a6.31,6.31,0,0,1,.12-1.22,5.13,5.13,0,0,1,.35-1.13,4.28,4.28,0,0,1,.54-.94,2.72,2.72,0,0,1,.72-.65,1.21,1.21,0,0,1,.71-.19.89.89,0,0,1,.55.28,1.68,1.68,0,0,1,.35.68,3.71,3.71,0,0,1,.13,1v.49a.53.53,0,0,1-.06.24.4.4,0,0,1-.13.17l-2.36,1.36a1.12,1.12,0,0,0,.06.4.58.58,0,0,0,.18.22.48.48,0,0,0,.27,0,.79.79,0,0,0,.3-.11,1.88,1.88,0,0,0,.37-.28,1.72,1.72,0,0,0,.23-.32,1.22,1.22,0,0,1,.13-.19.36.36,0,0,1,.13-.11l.57-.32a.1.1,0,0,1,.13,0,.24.24,0,0,1,.06.18,2.8,2.8,0,0,1-.11.45,3.44,3.44,0,0,1-.31.65,3.89,3.89,0,0,1-.51.68,2.87,2.87,0,0,1-.69.56,1.18,1.18,0,0,1-.72.21.81.81,0,0,1-.54-.29,1.66,1.66,0,0,1-.35-.73A4.57,4.57,0,0,1,262.48,249.51Zm1.73-2.63a1.42,1.42,0,0,0-.35.29,1.73,1.73,0,0,0-.24.38,2.41,2.41,0,0,0-.16.42,3,3,0,0,0-.06.38l1.59-.92a1.77,1.77,0,0,0-.05-.32.66.66,0,0,0-.13-.25.31.31,0,0,0-.23-.1A.63.63,0,0,0,264.21,246.88Z" style="fill:#455a64"></path><path d="M266.77,250.51a.09.09,0,0,1-.13,0,.22.22,0,0,1-.06-.17v-.72a.53.53,0,0,1,.06-.24.27.27,0,0,1,.13-.16l4.13-2.39a.11.11,0,0,1,.14,0s0,.09,0,.17v.72a.52.52,0,0,1,0,.24.38.38,0,0,1-.14.16Z" style="fill:#455a64"></path><path d="M274.23,245.55a.09.09,0,0,1-.13,0,.21.21,0,0,1-.06-.17v-1.32l-2.19,1.27a.1.1,0,0,1-.13,0,.24.24,0,0,1-.06-.18v-.77a.93.93,0,0,1,0-.29c0-.1.06-.2.1-.31l2.17-5.4a.91.91,0,0,1,.28-.44l.54-.31a.11.11,0,0,1,.14,0,.26.26,0,0,1,.05.17v4.35l.61-.35a.09.09,0,0,1,.13,0,.24.24,0,0,1,.06.18v.77a.53.53,0,0,1-.06.24.31.31,0,0,1-.13.16l-.61.35v1.32a.69.69,0,0,1-.05.24.38.38,0,0,1-.14.16Zm-.19-2.86v-2.32l-1.21,3Z" style="fill:#455a64"></path></g></g><g id="freepik--Character--inject-4"><g id="freepik--character--inject-4"><path d="M360.7,174.57c-.3,5.22-1.41,27.33-1,29.54.65,3.91,12.5,21.44,12.5,21.44s.75,7-8.73,10.08c-2.81-5-12.56-19.95-14.55-24.34a17.12,17.12,0,0,1-.8-7.84c.92-10.34,3.37-25.45,3.64-28.78Z" style="fill:#ffa8a7"></path><path d="M374.15,223.6c-.83-.76-4.33-3.35-5.54-5.06-4-5.62-6.39-10-6.39-10-4-.35-10.23,4.91-10.07,10.15,2.21,5.09,6.82,11.58,10.69,17.32Z" style="fill:#737CEB"></path><polygon points="397.67 382.3 390.55 382.5 390.2 368.45 397.32 368.25 397.67 382.3" style="fill:#ffa8a7"></polygon><path d="M390.45,379l0-1c-.67.32-2.56,5.71-4.83,9-1.7,2.52-6.63,5.51-7.34,7.82s4.37,3.56,6.45,3.13c2.42-.5,6.15-1.63,8.54-4.31,1.27-1.43,2-4.58,2.8-5.77s2.77-2.55,3.2-3.91a8.66,8.66,0,0,0-.52-3.72c-.36-1.25-.76-2.62-1.18-2.49,0,.15,0,.77,0,.77a5.61,5.61,0,0,1-3.52,1.31C393,379.92,390.47,379.78,390.45,379Z" style="fill:#263238"></path><polygon points="375.73 370.09 368.63 370.53 367.91 355.78 375.37 355.32 375.73 370.09" style="fill:#ffa8a7"></polygon><path d="M368.5,367.92a4.55,4.55,0,0,0-1.93,1.57,18.54,18.54,0,0,1-4.95,3.94,78,78,0,0,1-11.09,4.85c-1.51.55-2,2.7.46,4.4,2.8,1.9,6.13,1.64,10.49.53,2.38-.6,6.43-3.31,8.6-3.74,1.94-.39,5.7-.55,7.48-2.22a10.69,10.69,0,0,0-.08-4.62c-.5-2-1.16-5.11-1.82-5l0,.7c-.81,1.32-5.21,2-7.12,1.07Z" style="fill:#263238"></path><path d="M396.36,273.76c.19,6.79,1,53.72,1,53.72.22,1.95,2.2,5.37,2.55,12.41.5,10.2-2.09,34.43-2.09,34.43a9.37,9.37,0,0,1-7.92.39s-4.84-34-6.41-44.07c-1.44-9.31-1.68-8.63-4.24-32.38L377,319.19a40.63,40.63,0,0,1,1.21,11.28c-.2,4.68-2.14,33.74-2.14,33.74a9.74,9.74,0,0,1-8.2.86s-4.74-41.19-4.95-45.48c-.23-4.88-1-47.62-1-47.62Z" style="fill:#455a64"></path><path d="M377.63,289.59S374.33,289,370,285c0,0,1.21,3.19,5.94,5.61l1.69,7.65-.42,18.49,2-18.5Z" style="fill:#37474f"></path><path d="M393.13,227.26c3.65,2.09,4.85,3.38,5.48,5,.56,1.42,1.19,1.48,1.19,4.19L396,254.49l.38,19.27c-10.22,5.38-23.52,6.17-34.41-1.79,0,0-.93-32.11.4-37.83s4.53-10.8,9.81-12c1.93-.43,16.35,2.72,16.35,2.72S390.59,225.8,393.13,227.26Z" style="fill:#f0f0f0"></path><circle cx="375.9" cy="199.69" r="9.78" style="fill:#263238"></circle><path d="M392.81,206.64s-1.59,7.44-2.22,8.67a3.4,3.4,0,0,1-1.95,1.57l.11-5.24Z" style="fill:#263238"></path><path d="M390.82,196a3.68,3.68,0,0,1,3,1.07c1.3,1.34.57,5.51-1.05,9.6l-3,.34Z" style="fill:#263238"></path><path d="M388.93,207c.6.36,1.45-.79,2.19-1.56s3.15-1.83,4.35.7-1.06,6-3,6.59c-3.27,1-3.76-1.07-3.76-1.07l-.24,13.22h0c-4.06,5.22-15.35,4.82-10.65-.62v-4.71a23.5,23.5,0,0,1-4.08,0c-2.41-.37-3.85-2.05-4.63-4.64-1-3.36-1.53-9.22-1-15.78.78-9,11.57-9.1,17.23-5.54S388.93,207,388.93,207Z" style="fill:#ffa8a7"></path><path d="M388.93,208c.3,0,1.44-1.89,2.19-2.57,1-.94-.3-9.45-.3-9.45a4,4,0,0,0-1-4.3c-1.41-1.56-2.95-2.54-7-2.76a82.86,82.86,0,0,0-8.35.4c-4,.27-5.51-.72-7.83-1.37s-2.5,5.64,2.5,8c0,0,1.46.94,5.29,1.4a56.45,56.45,0,0,0,10.61-.2c1.11-.15,1.35.93,1.95,3.87C387.48,203.6,387.92,208,388.93,208Z" style="fill:#263238"></path><path d="M390.81,196.63l3.62-1.94a2,2,0,0,0-2.74-.9A2.15,2.15,0,0,0,390.81,196.63Z" style="fill:#263238"></path><path d="M377.87,219.53s5.37-1.08,7.25-2.08a6.14,6.14,0,0,0,2.59-2.56,8.41,8.41,0,0,1-1.47,3c-1.37,1.76-8.37,3.05-8.37,3.05Z" style="fill:#f28f8f"></path><path d="M378.14,205.64a1.08,1.08,0,1,0,1.07-1.12A1.1,1.1,0,0,0,378.14,205.64Z" style="fill:#263238"></path><path d="M379.28,201.58l2.3,1.27A1.37,1.37,0,0,0,381,201,1.28,1.28,0,0,0,379.28,201.58Z" style="fill:#263238"></path><path d="M378.36,213.07l-2.46.92a1.29,1.29,0,0,0,1.67.82A1.38,1.38,0,0,0,378.36,213.07Z" style="fill:#f28f8f"></path><path d="M368.86,202.48l2.1-1.62a1.28,1.28,0,0,0-1.83-.28A1.39,1.39,0,0,0,368.86,202.48Z" style="fill:#263238"></path><path d="M369.5,205.34a1.08,1.08,0,1,0,2.15,0,1.08,1.08,0,0,0-1.07-1.11A1.1,1.1,0,0,0,369.5,205.34Z" style="fill:#263238"></path><polygon points="374.98 204.32 374.63 210.78 371.25 209.63 374.98 204.32" style="fill:#f28f8f"></polygon><path d="M352.56,68.57v74.62a2.72,2.72,0,0,0,1.23,2.14L428,188.19c.68.39,1.23.07,1.23-.72v-3.9l-72.7-42V69.42l-2.71-1.56C353.11,67.46,352.56,67.78,352.56,68.57Z" style="fill:#263238"></path><path d="M374.44,100.27a2.23,2.23,0,0,1,.24-.19h0l0,0,4.61-2.67h0a1.57,1.57,0,0,1,2.08.51l16.37,40.38,10.88-7.16a1.88,1.88,0,0,1,.23-.16h0l.05,0h0l4.55-2.63h0a1.56,1.56,0,0,1,2.11.46l15.86,32.16v21.34l-4.63,2.67-71.38-41.23a2.64,2.64,0,0,1-1.32-2.29V121.14Z" style="fill:#737CEB"></path><path d="M374.44,100.27a2.23,2.23,0,0,1,.24-.19h0l0,0,4.61-2.67h0a1.57,1.57,0,0,1,2.08.51l16.37,40.38,10.88-7.16a1.88,1.88,0,0,1,.23-.16h0l.05,0h0l4.55-2.63h0a1.56,1.56,0,0,1,2.11.46l15.86,32.16v21.34l-4.63,2.67-71.38-41.23a2.64,2.64,0,0,1-1.32-2.29V121.14Z" style="opacity:0.15"></path><path d="M426.89,184.91V163.57L411,131.42a1.56,1.56,0,0,0-2.32-.32l-15.22,10-16.66-40.57a1.56,1.56,0,0,0-2.39-.28l-20.25,20.87v20.25a2.64,2.64,0,0,0,1.32,2.29Z" style="fill:#737CEB"></path><polygon points="393.49 141.12 398.29 152.79 395.24 139.96 393.49 141.12" style="opacity:0.15"></polygon><path d="M349.56,64.18v93.34a2.72,2.72,0,0,0,1.23,2.14l79.5,45.91a1.24,1.24,0,0,0,.2.1l.08,0a2.75,2.75,0,0,0,2.18-.13l2.16-1.24a2.74,2.74,0,0,0,1.24-2.14V108.84a2.56,2.56,0,0,0-.36-1.21,2.6,2.6,0,0,0-.88-.92L355.42,60.79a2.73,2.73,0,0,0-2.46,0L350.79,62a2.8,2.8,0,0,0-1.19,1.79s0,.1,0,.15S349.56,64.11,349.56,64.18Zm3,4.39c0-.79.55-1.11,1.23-.71L428,110.72a2.35,2.35,0,0,1,.87.92,2.45,2.45,0,0,1,.36,1.21v74.62c0,.79-.55,1.11-1.23.72l-74.18-42.86a2.72,2.72,0,0,1-1.23-2.14Z" style="fill:#455a64"></path><path d="M430.57,205.7a2.75,2.75,0,0,0,2.18-.13l2.16-1.24a2.72,2.72,0,0,0,1.24-2.14V108.84a2.56,2.56,0,0,0-.36-1.21l-4.63,2.67a2.45,2.45,0,0,1,.36,1.22v93.34C431.52,205.53,431.11,205.86,430.57,205.7Z" style="fill:#263238"></path><path d="M349.56,64.18v93.34a2.72,2.72,0,0,0,1.23,2.14l79.5,45.91a1.24,1.24,0,0,0,.2.1l.08,0c.54.16.95-.17.95-.84V111.52a2.48,2.48,0,0,0-.36-1.22,2.57,2.57,0,0,0-.87-.92l-79.5-45.91c-.56-.33-1-.16-1.19.36,0,0,0,.1,0,.15S349.56,64.11,349.56,64.18Zm3,4.39c0-.79.55-1.11,1.23-.71L428,110.72a2.35,2.35,0,0,1,.87.92,2.45,2.45,0,0,1,.36,1.21v74.62c0,.79-.55,1.11-1.23.72l-74.18-42.86a2.72,2.72,0,0,1-1.23-2.14Z" style="fill:#37474f"></path><path d="M400.17,111.61l-1.79-3,3.68-2.14h0a3.51,3.51,0,0,1,3.52.35,11,11,0,0,1,5,8.63,3.5,3.5,0,0,1-1.43,3.19h0l-3.57,2.07-1.71-2.91A11.59,11.59,0,0,1,400.17,111.61Z" style="fill:#737CEB"></path><path d="M400.17,111.61l-1.79-3,3.68-2.14h0a3.51,3.51,0,0,1,3.52.35,11,11,0,0,1,5,8.63,3.5,3.5,0,0,1-1.43,3.19h0l-3.57,2.07-1.71-2.91A11.59,11.59,0,0,1,400.17,111.61Z" style="opacity:0.15"></path><path d="M402,108.87c-2.75-1.58-5-.3-5,2.88a11,11,0,0,0,5,8.62c2.75,1.59,5,.3,5-2.87A11,11,0,0,0,402,108.87Z" style="fill:#737CEB"></path><path d="M410.07,228c1-.17,2.13,3.1,2.49,5.88s.92,7.15-.41,7.65-3.33-3.3-4-6.35S407.77,228.15,410.07,228Z" style="fill:#737CEB"></path><path d="M410.07,228c1-.17,2.13,3.1,2.49,5.88s.92,7.15-.41,7.65-3.33-3.3-4-6.35S407.77,228.15,410.07,228Z" style="opacity:0.30000000000000004"></path><path d="M421.91,201h0c-.47-.22-1.48-1.25-2.12-5.11-.44-2.6-.65-3.72-1.79-4.1s-.77.85-1.1,3.89c-.32,2.85-1.11,6.83-.72,10A49.07,49.07,0,0,1,415.4,217c-.64,4.23-2.38,10.46-2.38,10.46-1.34,1.43-18.78,4.59-18.78,4.59-3.64,6.72,1,13.67,1,13.67,11.05-3.18,15.29-4.9,20.85-6.74,4.08-1.35,5.25-2.07,5.86-4.9,1.45-6.68,2-16.89,2.53-21.93.41-3.54,4.33-4.73,5-6.71Z" style="fill:#ffa8a7"></path><path d="M395.51,229.2a4.94,4.94,0,0,0-3.14,3c-.53,1.46-2.51,12.89,4.13,14.56.62-.08,3.69-1.3,7.95-2.51a65.82,65.82,0,0,0,7.7-2.72c-2.57-.37-4.95-11.72-2.08-13.53Z" style="fill:#737CEB"></path><path d="M365.46,168.45c-.92-.57,0-3.23.2-6.09.21-3.05.85-4.21-.4-4s-1.59,1.24-2.48,3.72a13.43,13.43,0,0,1-1.86,3.73l-5.4-3.17c-1.63,1.88-3.12,3-3.39,6.27-.49,5.73-.56,7.13-1.12,11.64s9.64-5,9.64-5c.41-3.55,4.63-4.76,5.33-6.73l-.52-.31Z" style="fill:#ffa8a7"></path></g></g></svg>