<svg id="Group_154" data-name="Group 154" xmlns="http://www.w3.org/2000/svg" width="202" height="202" viewBox="0 0 202 202">
  <path id="Path_165" data-name="Path 165" d="M30,0H172a30,30,0,0,1,30,30V172a30,30,0,0,1-30,30H30A30,30,0,0,1,0,172V30A30,30,0,0,1,30,0Z" fill="#737ceb"/>
  <path id="Path_260" data-name="Path 260" d="M69.054-60.33a12.248,12.248,0,0,0-4.207-8.809Q61.092-72.3,53.469-72.3a22.874,22.874,0,0,0-7.934,1.158,9.743,9.743,0,0,0-4.546,3.134,7.676,7.676,0,0,0-1.525,4.517,7.1,7.1,0,0,0,.762,3.755,8.527,8.527,0,0,0,2.8,2.993,21.334,21.334,0,0,0,4.913,2.4,52.81,52.81,0,0,0,7.115,1.92l9.486,2.033a71.334,71.334,0,0,1,16.432,5.364,39.43,39.43,0,0,1,11.18,7.821,28.611,28.611,0,0,1,6.409,10.079,35.9,35.9,0,0,1,2.118,12.2q-.056,11.406-5.7,19.312T78.851,16.409Q68.377,20.531,53.7,20.531q-15.077,0-26.285-4.461A36.445,36.445,0,0,1,10.018,2.32q-6.183-9.289-6.24-23.8H33.593a17.688,17.688,0,0,0,2.654,8.922,14.76,14.76,0,0,0,6.691,5.477A25.911,25.911,0,0,0,53.243-5.218,24.644,24.644,0,0,0,61.657-6.46,11.361,11.361,0,0,0,66.8-9.9,8.129,8.129,0,0,0,68.6-14.93a7.327,7.327,0,0,0-1.722-4.659A14.246,14.246,0,0,0,61.431-23.2a59.6,59.6,0,0,0-10.221-3.021L39.691-28.708Q24.332-32.04,15.5-39.861T6.715-61.233a31.84,31.84,0,0,1,5.9-19.283,39.156,39.156,0,0,1,16.545-12.9,60.153,60.153,0,0,1,24.309-4.63q14,0,24.224,4.687A36.483,36.483,0,0,1,93.476-80.178,35.756,35.756,0,0,1,99.095-60.33Z" transform="translate(35.789 141.603)" fill="#f6f9fa"/>
  <path id="Path_261" data-name="Path 261" d="M111.468,5.648a14.886,14.886,0,0,1-10.852-4.456A14.493,14.493,0,0,1,96.161-9.66a14.215,14.215,0,0,1,4.456-10.661,14.933,14.933,0,0,1,10.852-4.428A14.921,14.921,0,0,1,122.1-20.32,14.424,14.424,0,0,1,126.776-9.66a14.719,14.719,0,0,1-2.214,7.736,16.4,16.4,0,0,1-5.6,5.522A14.381,14.381,0,0,1,111.468,5.648Z" transform="translate(49.789 156.863)" fill="#484955"/>
</svg>
