<svg id="main" xmlns="http://www.w3.org/2000/svg" width="703" height="621.868" viewBox="0 0 703 621.868">
  <g id="freepik--Floor--inject-661" transform="translate(0 314.447)">
    <ellipse id="freepik--floor--inject-661-2" data-name="freepik--floor--inject-661" cx="351.5" cy="153.71" rx="351.5" ry="153.71" fill="#fafafa"/>
  </g>
  <g id="freepik--Shadows--inject-661" transform="translate(46.484 432.273)">
    <ellipse id="freepik--Shadow--inject-661" cx="75.293" cy="35.885" rx="75.293" ry="35.885" fill="#ebebeb"/>
  </g>
  <g id="freepik--Plant--inject-661" transform="translate(579.611 359.165)">
    <g id="freepik--Plants--inject-661">
      <path id="Path_193" data-name="Path 193" d="M54.529,365.217S53,335.857,67.624,315.134s32.99-21.151,40.357-18.2,12.988,12.773,1.532,21.2-35.824,25.44-38.9,38.918Z" transform="translate(-44.707 -295.617)" fill="#737ceb"/>
      <path id="Path_194" data-name="Path 194" d="M54.529,365.217S53,335.857,67.624,315.134s32.99-21.151,40.357-18.2,12.988,12.773,1.532,21.2-35.824,25.44-38.9,38.918Z" transform="translate(-44.707 -295.617)" opacity="0.15"/>
      <path id="Path_195" data-name="Path 195" d="M63.879,356.8a.766.766,0,0,0,.75-.613c8.117-40.051,31.842-51.262,41.659-54.233a.766.766,0,0,0,.521-.95.781.781,0,0,0-.965-.505c-10.078,3.063-34.43,14.519-42.716,55.382a.751.751,0,0,0,.6.9Z" transform="translate(-48.712 -293.037)" fill="#fff"/>
      <path id="Path_196" data-name="Path 196" d="M58.1,337.08c3.232-9.695,7.489-14.305,20.983-13.279s11.518.858,27.477-4.794,27.875,0,29.636,6.218c1.914,6.708-11.15,10.92-20.692,16.266S99.653,353.1,102.838,361.831c2.726,7.49,2.037,14.091-9.526,17.95-10.292,3.431-22.055-1.623-25.47,8.822-1.945,5.958-11.2,13.1-20.722,8.577-17.047-14.29-14.382-33.848-5.5-47.372C45.526,343.865,56.155,342.916,58.1,337.08Z" transform="translate(-34.617 -284.419)" fill="#737ceb"/>
      <path id="Path_197" data-name="Path 197" d="M43.059,378.511a.75.75,0,0,0,.72-.521c10.047-28.61,57.358-53.437,74.65-56.24a.781.781,0,0,0,.628-.888.751.751,0,0,0-.873-.628c-17.552,2.864-65.613,28.12-75.844,57.251a.766.766,0,0,0,.459.98Z" transform="translate(-29.056 -282.536)" fill="#fff"/>
      <path id="Path_198" data-name="Path 198" d="M90.048,351.522a.812.812,0,0,0,.613-.291.781.781,0,0,0-.138-1.072,47.327,47.327,0,0,0-26.037-8.439.766.766,0,1,0,0,1.532,46.729,46.729,0,0,1,25.087,8.087A.766.766,0,0,0,90.048,351.522Z" transform="translate(-33.62 -271.109)" fill="#fff"/>
    </g>
  </g>
  <g id="freepik--Photos--inject-661" transform="translate(206.039 0)">
    <g id="freepik--Photo--inject-661" transform="translate(70.453)">
      <path id="Path_199" data-name="Path 199" d="M112.185,71.21V350.021L395.422,513.533l-6.387,13.08L112.185,366.792,99.81,367.94V72.4Z" transform="translate(-90.385 -55.744)" fill="#f0f0f0"/>
      <path id="Path_200" data-name="Path 200" d="M149.489,175.7l-2.313-3.232,14.627-8.454h.107a4.886,4.886,0,0,1,6.509,1.532l40.342,62.106,41.8-36.191-1.731-2.6,14.489-8.363h0a4.871,4.871,0,0,1,6.6,1.532L375.782,340.869V454.62L361.262,463,99.82,303.713v-80.24Z" transform="translate(-70.76 -6.756)" fill="#f0f0f0"/>
      <path id="Path_201" data-name="Path 201" d="M385.247,460.1V346.364L279.4,187.477a4.886,4.886,0,0,0-7.275-1l-53.9,46.668-40.342-62.106a4.9,4.9,0,0,0-7.5-.858L109.3,228.968V295.99a8.346,8.346,0,0,0,4.149,7.213Z" transform="translate(-94.744 -3.858)" fill="#fafafa"/>
      <path id="Path_202" data-name="Path 202" d="M240.145,212.271,218.35,231.14l19.068-23.05Z" transform="translate(-116.662 17.02)" fill="#f0f0f0"/>
      <path id="Path_203" data-name="Path 203" d="M90.407,72.029a2.37,2.37,0,0,1,.092-.475,8.577,8.577,0,0,1,3.737-5.59l6.785-3.921a8.531,8.531,0,0,1,7.75,0L406.006,233.658a8.225,8.225,0,0,1,2.757,2.895,7.98,7.98,0,0,1,1.118,3.814V533.3a8.562,8.562,0,0,1-3.875,6.708l-6.77,3.921a8.638,8.638,0,0,1-6.846.4l-.276-.107a3.252,3.252,0,0,1-.628-.291l-86-49.654L94.236,372.313a8.607,8.607,0,0,1-3.875-6.708V72.657A1.719,1.719,0,0,1,90.407,72.029Zm9.358,288.429a8.546,8.546,0,0,0,3.89,6.708l204.13,117.259,76.442,44.768c2.129,1.225,3.875.23,3.875-2.236V252.94a7.827,7.827,0,0,0-1.133-3.8,7.475,7.475,0,0,0-2.742-2.895L103.655,84.22c-2.16-1.256-3.89-.26-3.89,2.221Z" transform="translate(-90.34 -61.112)" fill="#fff"/>
      <path id="Path_204" data-name="Path 204" d="M97.6,483.035a3.253,3.253,0,0,0,.628.291l.276.107a8.638,8.638,0,0,0,6.846-.4l6.77-3.921a8.562,8.562,0,0,0,3.875-6.708V179.474a7.98,7.98,0,0,0-1.118-3.814l-14.519,8.378c-2.359,1.363-4.794,2.757-7.275,4.212a7.826,7.826,0,0,1,1.133,3.8V466.065c0,2.466-1.746,3.461-3.875,2.236Z" transform="translate(203.547 -0.22)" fill="#f0f0f0"/>
      <path id="Path_205" data-name="Path 205" d="M99.871,68.98a2.371,2.371,0,0,1,.092-.475c.459-1.623,1.96-2.16,3.737-1.133L400.951,239.017a8.408,8.408,0,0,1,3.89,6.693V538.642c0,2.1-1.271,3.14-2.971,2.634l-.276-.107a3.251,3.251,0,0,1-.628-.291L103.715,369.34a8.607,8.607,0,0,1-3.875-6.708V69.608A1.441,1.441,0,0,1,99.871,68.98Zm9.358,288.429a8.546,8.546,0,0,0,3.89,6.708L393.691,526.144c2.129,1.225,3.875.23,3.875-2.236V249.891a7.827,7.827,0,0,0-1.133-3.8,7.474,7.474,0,0,0-2.742-2.895L113.119,81.171c-2.16-1.256-3.89-.26-3.89,2.221Z" transform="translate(-99.804 -58.063)" fill="#fafafa"/>
      <path id="Path_206" data-name="Path 206" d="M246.306,132.535l-7.336-12.467,12.559-7.321h0c3.691-2.114,8.776-1.807,14.382,1.44,11.242,6.494,20.37,22.285,20.37,35.227,0,6.4-2.236,10.92-5.82,13.08h-.107l-12.1,7.03-7.015-11.885a47.618,47.618,0,0,1-14.933-25.1Z" transform="translate(-194.38 -34.378)" fill="#f0f0f0"/>
      <ellipse id="Ellipse_23" data-name="Ellipse 23" cx="28.794" cy="16.618" rx="28.794" ry="16.618" transform="translate(59.23 143.721) rotate(-120)" fill="#fafafa"/>
    </g>
    <g id="freepik--photo--inject-661-2" data-name="freepik--photo--inject-661" transform="translate(35.227 19.911)">
      <path id="Path_207" data-name="Path 207" d="M135.185,84.21V363.021L418.422,526.533l-6.387,13.08L135.185,379.792,122.81,380.94V85.4Z" transform="translate(-113.385 -68.744)" fill="#ebebeb"/>
      <path id="Path_208" data-name="Path 208" d="M172.489,188.7l-2.313-3.232,14.627-8.454h.107a4.886,4.886,0,0,1,6.509,1.532l40.342,62.106,41.8-36.191-1.731-2.6,14.489-8.363h0a4.87,4.87,0,0,1,6.6,1.532L398.782,353.869V467.62L384.262,476,122.82,316.713v-80.24Z" transform="translate(-93.76 -19.756)" fill="#ebebeb"/>
      <path id="Path_209" data-name="Path 209" d="M408.247,473.1V359.364L302.4,200.477a4.886,4.886,0,0,0-7.275-1l-53.9,46.668-40.342-62.106a4.9,4.9,0,0,0-7.5-.858L132.3,241.968V308.99a8.346,8.346,0,0,0,4.149,7.213Z" transform="translate(-117.744 -16.858)" fill="#f5f5f5"/>
      <path id="Path_210" data-name="Path 210" d="M263.145,225.271,241.35,244.14l19.068-23.05Z" transform="translate(-139.662 4.02)" fill="#ebebeb"/>
      <path id="Path_211" data-name="Path 211" d="M113.407,85.029a2.375,2.375,0,0,1,.092-.475,8.577,8.577,0,0,1,3.737-5.59l6.785-3.921a8.531,8.531,0,0,1,7.75,0L429.006,246.658a8.224,8.224,0,0,1,2.757,2.895,7.979,7.979,0,0,1,1.118,3.814V546.3a8.562,8.562,0,0,1-3.875,6.708l-6.77,3.921a8.638,8.638,0,0,1-6.846.4l-.276-.107a3.248,3.248,0,0,1-.628-.291l-86-49.654L117.236,385.313a8.607,8.607,0,0,1-3.875-6.708V85.657A1.718,1.718,0,0,1,113.407,85.029Zm9.358,288.429a8.546,8.546,0,0,0,3.89,6.708l204.13,117.258,76.442,44.768c2.129,1.225,3.875.23,3.875-2.236V265.94a7.826,7.826,0,0,0-1.133-3.8,7.474,7.474,0,0,0-2.742-2.895L126.655,97.22c-2.16-1.256-3.89-.26-3.89,2.221Z" transform="translate(-113.34 -74.112)" fill="#fafafa"/>
      <path id="Path_212" data-name="Path 212" d="M120.6,496.035a3.25,3.25,0,0,0,.628.291l.276.107a8.638,8.638,0,0,0,6.846-.4l6.77-3.921a8.562,8.562,0,0,0,3.875-6.708V192.474a7.979,7.979,0,0,0-1.118-3.814l-14.519,8.378c-2.359,1.363-4.794,2.757-7.275,4.212a7.827,7.827,0,0,1,1.133,3.8V479.065c0,2.466-1.746,3.461-3.875,2.236Z" transform="translate(180.547 -13.22)" fill="#f0f0f0"/>
      <path id="Path_213" data-name="Path 213" d="M122.871,81.98a2.376,2.376,0,0,1,.092-.475c.46-1.623,1.961-2.16,3.737-1.133L423.951,252.017a8.408,8.408,0,0,1,3.89,6.693V551.642c0,2.1-1.271,3.14-2.971,2.634l-.276-.107a3.25,3.25,0,0,1-.628-.291L126.715,382.34a8.608,8.608,0,0,1-3.875-6.708V82.608A1.44,1.44,0,0,1,122.871,81.98Zm9.358,288.429a8.546,8.546,0,0,0,3.89,6.708L416.691,539.144c2.129,1.225,3.875.23,3.875-2.236V262.891a7.826,7.826,0,0,0-1.133-3.8,7.474,7.474,0,0,0-2.742-2.895L136.119,94.171c-2.16-1.256-3.89-.26-3.89,2.221Z" transform="translate(-122.804 -71.063)" fill="#f5f5f5"/>
      <path id="Path_214" data-name="Path 214" d="M269.306,145.535l-7.336-12.467,12.559-7.321h0c3.691-2.114,8.776-1.807,14.382,1.44,11.242,6.494,20.37,22.285,20.37,35.227,0,6.4-2.236,10.92-5.82,13.08h-.184l-12.1,7.03-7.015-11.885a47.618,47.618,0,0,1-14.856-25.1Z" transform="translate(-217.38 -47.378)" fill="#ebebeb"/>
      <ellipse id="Ellipse_24" data-name="Ellipse 24" cx="28.794" cy="16.618" rx="28.794" ry="16.618" transform="translate(59.217 143.723) rotate(-120)" fill="#f5f5f5"/>
    </g>
    <g id="freepik--photo--inject-661-3" data-name="freepik--photo--inject-661" transform="translate(0 39.821)">
      <path id="Path_215" data-name="Path 215" d="M158.185,97.21V376.021L441.422,539.533l-6.4,13.08L158.185,392.792,145.81,393.94V98.4Z" transform="translate(-136.385 -81.744)" fill="#e0e0e0"/>
      <path id="Path_216" data-name="Path 216" d="M195.489,201.7l-2.313-3.232,14.627-8.454h.107a4.886,4.886,0,0,1,6.509,1.532l40.342,62.106,41.8-36.191-1.731-2.6,14.489-8.362h0a4.87,4.87,0,0,1,6.6,1.532L421.782,366.869V480.62L407.262,489,145.82,329.713v-80.24Z" transform="translate(-116.76 -32.756)" fill="#e6e6e6"/>
      <path id="Path_217" data-name="Path 217" d="M431.247,486.1V372.364L325.4,213.477a4.886,4.886,0,0,0-7.275-1l-53.9,46.667-40.342-62.106a4.9,4.9,0,0,0-7.5-.858L155.3,254.968V321.99a8.346,8.346,0,0,0,4.149,7.213Z" transform="translate(-140.744 -29.858)" fill="#ebebeb"/>
      <path id="Path_218" data-name="Path 218" d="M286.144,238.271,264.35,257.14l19.068-23.05Z" transform="translate(-162.662 -8.98)" fill="#e6e6e6"/>
      <path id="Path_219" data-name="Path 219" d="M136.407,98.029a2.372,2.372,0,0,1,.092-.475,8.577,8.577,0,0,1,3.737-5.59l6.785-3.921a8.531,8.531,0,0,1,7.75,0L452.006,259.658a8.225,8.225,0,0,1,2.757,2.895,7.979,7.979,0,0,1,1.118,3.814V559.3a8.561,8.561,0,0,1-3.875,6.708l-6.77,3.921a8.638,8.638,0,0,1-6.846.4l-.276-.107a3.245,3.245,0,0,1-.628-.291l-86-49.654L140.236,398.313a8.608,8.608,0,0,1-3.875-6.708V98.657A1.719,1.719,0,0,1,136.407,98.029Zm9.358,288.429a8.546,8.546,0,0,0,3.89,6.708l204.13,117.258,76.442,44.768c2.129,1.225,3.875.23,3.875-2.236V278.94a7.827,7.827,0,0,0-1.133-3.8,7.474,7.474,0,0,0-2.742-2.895L149.655,110.22c-2.16-1.256-3.89-.26-3.89,2.221Z" transform="translate(-136.34 -87.112)" fill="#f0f0f0"/>
      <path id="Path_220" data-name="Path 220" d="M143.6,509.035a3.251,3.251,0,0,0,.628.291l.276.107a8.638,8.638,0,0,0,6.846-.4l6.77-3.921a8.562,8.562,0,0,0,3.875-6.708V205.474a7.98,7.98,0,0,0-1.118-3.814l-14.519,8.378c-2.359,1.363-4.794,2.757-7.275,4.212a7.826,7.826,0,0,1,1.133,3.8V492.065c0,2.466-1.746,3.461-3.875,2.236Z" transform="translate(157.547 -26.22)" fill="#e0e0e0"/>
      <path id="Path_221" data-name="Path 221" d="M145.871,94.98a2.371,2.371,0,0,1,.092-.475c.459-1.623,1.96-2.16,3.737-1.133L446.951,265.017a8.408,8.408,0,0,1,3.89,6.693V564.642c0,2.1-1.271,3.14-2.971,2.634l-.276-.107a3.247,3.247,0,0,1-.628-.291L149.715,395.34a8.607,8.607,0,0,1-3.875-6.708V95.608A1.441,1.441,0,0,1,145.871,94.98Zm9.358,288.429a8.546,8.546,0,0,0,3.89,6.708L439.691,552.144c2.129,1.225,3.875.23,3.875-2.236V275.891a7.826,7.826,0,0,0-1.133-3.8,7.474,7.474,0,0,0-2.741-2.895L159.119,107.171c-2.16-1.256-3.89-.26-3.89,2.221Z" transform="translate(-145.804 -84.063)" fill="#ebebeb"/>
      <path id="Path_222" data-name="Path 222" d="M292.306,158.535l-7.336-12.467,12.559-7.321h0c3.691-2.114,8.776-1.807,14.382,1.44,11.242,6.494,20.37,22.285,20.37,35.227,0,6.4-2.236,10.92-5.82,13.08h-.184l-12.1,7.03-7.015-11.885a47.617,47.617,0,0,1-14.856-25.1Z" transform="translate(-240.38 -60.378)" fill="#e6e6e6"/>
      <ellipse id="Ellipse_25" data-name="Ellipse 25" cx="28.794" cy="16.618" rx="28.794" ry="16.618" transform="translate(59.22 143.725) rotate(-120)" fill="#ebebeb"/>
    </g>
  </g>
  <g id="freepik--Character--inject-661" transform="translate(80.601 61.264)">
    <g id="freepik--photo--inject-661-4" data-name="freepik--photo--inject-661" transform="translate(88.681)">
      <path id="Path_223" data-name="Path 223" d="M182.185,111.21V390.021L465.422,553.533l-6.4,13.08L182.185,406.792,169.81,407.94V112.4Z" transform="translate(-160.385 -95.744)" fill="#263238"/>
      <path id="Path_224" data-name="Path 224" d="M219.49,215.7l-2.313-3.232,14.627-8.454h.107a4.886,4.886,0,0,1,6.509,1.532l40.342,62.106,41.8-36.191-1.731-2.6,14.489-8.362h0a4.87,4.87,0,0,1,6.6,1.532L445.782,380.869V494.62L431.263,503,169.82,343.713v-80.24Z" transform="translate(-140.76 -46.756)" fill="#737ceb"/>
      <path id="Path_225" data-name="Path 225" d="M219.49,215.7l-2.313-3.232,14.627-8.454h.107a4.886,4.886,0,0,1,6.509,1.532l40.342,62.106,41.8-36.191-1.731-2.6,14.489-8.362h0a4.87,4.87,0,0,1,6.6,1.532L445.782,380.869V494.62L431.263,503,169.82,343.713v-80.24Z" transform="translate(-140.76 -46.756)" opacity="0.15"/>
      <path id="Path_226" data-name="Path 226" d="M455.247,500.1V386.364L349.4,227.477a4.886,4.886,0,0,0-7.275-1l-53.9,46.667-40.342-62.106a4.9,4.9,0,0,0-7.5-.858L179.3,268.968V335.99a8.346,8.346,0,0,0,4.149,7.213Z" transform="translate(-164.744 -43.858)" fill="#737ceb"/>
      <path id="Path_227" data-name="Path 227" d="M310.145,252.271,288.35,271.14l19.068-23.05Z" transform="translate(-186.662 -22.98)" opacity="0.15"/>
      <path id="Path_228" data-name="Path 228" d="M160.407,112.029a2.373,2.373,0,0,1,.092-.475,8.577,8.577,0,0,1,3.737-5.59l6.785-3.921a8.531,8.531,0,0,1,7.75,0L476.006,273.658a8.224,8.224,0,0,1,2.757,2.895,7.979,7.979,0,0,1,1.118,3.814V573.3a8.561,8.561,0,0,1-3.875,6.708l-6.77,3.921a8.638,8.638,0,0,1-6.846.4l-.276-.107a3.247,3.247,0,0,1-.628-.291l-86-49.654L164.236,412.313a8.608,8.608,0,0,1-3.875-6.708V112.657A1.719,1.719,0,0,1,160.407,112.029Zm9.358,288.429a8.546,8.546,0,0,0,3.89,6.708l204.13,117.259,76.442,44.768c2.129,1.225,3.875.23,3.875-2.236V292.94a7.827,7.827,0,0,0-1.133-3.8,7.474,7.474,0,0,0-2.742-2.895L173.655,124.22c-2.16-1.256-3.89-.26-3.89,2.221Z" transform="translate(-160.34 -101.112)" fill="#455a64"/>
      <path id="Path_229" data-name="Path 229" d="M167.6,523.035a3.243,3.243,0,0,0,.628.291l.276.107a8.638,8.638,0,0,0,6.846-.4l6.77-3.921a8.561,8.561,0,0,0,3.875-6.708V219.474a7.979,7.979,0,0,0-1.118-3.814l-14.519,8.378c-2.359,1.363-4.794,2.757-7.275,4.212a7.826,7.826,0,0,1,1.133,3.8V506.065c0,2.466-1.746,3.461-3.875,2.236Z" transform="translate(133.547 -40.22)" fill="#263238"/>
      <path id="Path_230" data-name="Path 230" d="M169.871,108.98a2.372,2.372,0,0,1,.092-.475c.459-1.623,1.96-2.16,3.737-1.133L470.951,279.017a8.408,8.408,0,0,1,3.89,6.693V578.642c0,2.1-1.271,3.14-2.971,2.634l-.276-.107a3.25,3.25,0,0,1-.628-.291L173.715,409.34a8.608,8.608,0,0,1-3.875-6.708V109.608A1.441,1.441,0,0,1,169.871,108.98Zm9.358,288.429a8.546,8.546,0,0,0,3.89,6.708L463.691,566.144c2.129,1.225,3.875.23,3.875-2.236V289.891a7.827,7.827,0,0,0-1.133-3.8,7.474,7.474,0,0,0-2.742-2.895L183.119,121.171c-2.16-1.256-3.89-.26-3.89,2.221Z" transform="translate(-169.804 -98.063)" fill="#37474f"/>
      <path id="Path_231" data-name="Path 231" d="M316.306,172.535l-7.336-12.467,12.559-7.321h0c3.691-2.114,8.776-1.807,14.382,1.44,11.242,6.494,20.37,22.285,20.37,35.227,0,6.4-2.236,10.92-5.82,13.08h-.184l-12.1,7.03-7.015-11.885a47.617,47.617,0,0,1-14.856-25.1Z" transform="translate(-264.38 -74.378)" fill="#737ceb"/>
      <path id="Path_232" data-name="Path 232" d="M316.306,172.535l-7.336-12.467,12.559-7.321h0c3.691-2.114,8.776-1.807,14.382,1.44,11.242,6.494,20.37,22.285,20.37,35.227,0,6.4-2.236,10.92-5.82,13.08h-.184l-12.1,7.03-7.015-11.885a47.617,47.617,0,0,1-14.856-25.1Z" transform="translate(-264.38 -74.378)" opacity="0.15"/>
      <ellipse id="Ellipse_26" data-name="Ellipse 26" cx="28.794" cy="16.618" rx="28.794" ry="16.618" transform="translate(59.228 143.718) rotate(-120)" fill="#737ceb"/>
    </g>
    <g id="freepik--character--inject-661-2" data-name="freepik--character--inject-661" transform="translate(0 36.427)">
      <path id="Path_233" data-name="Path 233" d="M382.555,202.029l1.363,4.3,12.069-26.542V214.6s-8.669,17.384-12.927,17.384c-.965,0-5.008,2.16-14.06-22.5Z" transform="translate(-307.346 -95.715)" fill="#ffa8a7"/>
      <path id="Path_234" data-name="Path 234" d="M389.194,215.6a28.763,28.763,0,0,0,17.4-5.008,228.273,228.273,0,0,0-8.271-27.569c-5.5-14.106-11.717-16.265-21.442-16.1Z" transform="translate(-330.022 -102.559)" fill="#737ceb"/>
      <path id="Path_235" data-name="Path 235" d="M388.612,215.52c9.572.766,17.981-4.932,17.981-4.932a228.273,228.273,0,0,0-8.271-27.569c-5.5-14.106-11.717-16.265-21.442-16.1Z" transform="translate(-330.022 -102.559)" opacity="0.1"/>
      <rect id="Rectangle_105" data-name="Rectangle 105" width="13.432" height="23.004" transform="translate(3.101 345.166)" fill="#ffa8a7"/>
      <path id="Path_236" data-name="Path 236" d="M385.23,357.907l13.432.46.674-24.337-14.106-.459Z" transform="translate(-335.553 -13.967)" fill="#ffa8a7"/>
      <path id="Path_237" data-name="Path 237" d="M382.262,239.884c0,12.835,2.267,87.484,2.267,87.484-.322,3.691-3.875,10.262-4.151,23.556-.4,19.3,1.271,79.29,1.271,79.29a17.736,17.736,0,0,0,14.964.291s11.854-78.816,14.259-97.914c2.1-16.664,5.667-61.938,5.667-61.938l7.29,54.4a76.366,76.366,0,0,0-1.669,21.366c.628,8.822,5.8,63.515,5.8,63.515a18.379,18.379,0,0,0,15.515,1.179s6.8-77.958,6.953-86.06c.168-9.19-4.472-103.535-4.472-103.535Z" transform="translate(-379.131 -73.531)" fill="#37474f"/>
      <path id="Path_238" data-name="Path 238" d="M388.359,176.111s-5.146,4.687-5.146,16.847v26.328L382.83,269c19.283,10.17,43.8,10.859,64.327-4.181,0,0-1.149-63.99-1.149-74.466v-1.317c-.689-15.01-15.408-25.348-29.943-21.611l-12.253,3.14-12.253,4.028Z" transform="translate(-379.698 -102.695)" fill="#737ceb"/>
      <ellipse id="Ellipse_27" data-name="Ellipse 27" cx="18.471" cy="18.471" rx="18.471" ry="18.471" transform="translate(27.989 4.494)" fill="#263238"/>
      <path id="Path_239" data-name="Path 239" d="M412.24,148.47s2.987,14.06,4.181,16.373a6.417,6.417,0,0,0,3.691,2.956L419.9,157.9Z" transform="translate(-397.698 -112.364)" fill="#263238"/>
      <path id="Path_240" data-name="Path 240" d="M420.705,135.326a6.938,6.938,0,0,0-5.743,2.022c-2.451,2.527-1.087,10.4,1.991,18.134l5.636.643Z" transform="translate(-402.411 -119.376)" fill="#263238"/>
      <path id="Path_241" data-name="Path 241" d="M399.323,159.106c-1.133.674-2.742-1.532-4.135-2.956s-5.943-3.446-8.209,1.332,1.991,11.318,5.575,12.452c6.126,1.93,7.107-2.037,7.107-2.037l.459,22.974h0c7.658,9.848,28.978,9.021,20.094-1.271v-6.77a39.591,39.591,0,0,0,8.332.429c4.595-.7,7.4-4.288,8.776-9.189,2.205-7.9,3.063-14.274,1.179-29.8-2.068-17.016-21.856-17.184-32.546-10.461S399.323,159.106,399.323,159.106Z" transform="translate(-377.46 -122.357)" fill="#ffa8a7"/>
      <path id="Path_242" data-name="Path 242" d="M389.97,163.544c-.567,0-2.726-3.569-4.135-4.855-1.945-1.777.567-17.843.567-17.843a7.658,7.658,0,0,1,1.884-8.117c2.665-2.941,7.137-3.262,14.749-4.472,4-.628,10.063-1.746,14.06-2.481,4.763-.888,8.715-1.823,12.084,1.1a8.424,8.424,0,0,1,2.328,9.465,7.182,7.182,0,0,1-1.348,2.022,7.826,7.826,0,0,1-3.431,2.359s-2.083,1.853-9.312,2.726a107.7,107.7,0,0,1-20.048-.368c-2.083-.291-2.542,1.746-3.676,7.29C392.712,155.243,391.884,163.514,389.97,163.544Z" transform="translate(-368.107 -124.896)" fill="#263238"/>
      <path id="Path_243" data-name="Path 243" d="M421.487,138.15l-6.846-3.676a3.768,3.768,0,0,1,5.177-1.7A4.074,4.074,0,0,1,421.487,138.15Z" transform="translate(-403.178 -120.944)" fill="#263238"/>
      <path id="Path_244" data-name="Path 244" d="M417.578,167.416s-10.124-2.052-13.677-3.936a11.717,11.717,0,0,1-4.9-4.84,16.144,16.144,0,0,0,2.788,5.713c2.588,3.308,15.791,5.759,15.791,5.759Z" transform="translate(-374.886 -106.958)" fill="#f28f8f"/>
      <path id="Path_245" data-name="Path 245" d="M404.632,147.974a2.052,2.052,0,1,1-.568-1.48,2.037,2.037,0,0,1,.568,1.48Z" transform="translate(-364.329 -113.751)" fill="#263238"/>
      <path id="Path_246" data-name="Path 246" d="M406.645,142.7l-4.35,2.4a2.6,2.6,0,0,1,1.011-3.461,2.42,2.42,0,0,1,3.339,1.057Z" transform="translate(-368.548 -116.152)" fill="#263238"/>
      <path id="Path_247" data-name="Path 247" d="M396.712,156.4l4.595,1.746a2.435,2.435,0,0,1-3.063,1.532A2.6,2.6,0,0,1,396.712,156.4Z" transform="translate(-354.892 -108.148)" fill="#f28f8f"/>
      <path id="Path_248" data-name="Path 248" d="M392.376,144.749l-3.967-3.063a2.4,2.4,0,0,1,3.446-.521,2.6,2.6,0,0,1,.521,3.584Z" transform="translate(-333.954 -116.516)" fill="#263238"/>
      <path id="Path_249" data-name="Path 249" d="M393.757,147.6a2.052,2.052,0,0,1-2.022,2.1,2.114,2.114,0,1,1,2.022-2.1Z" transform="translate(-336.56 -113.958)" fill="#263238"/>
      <path id="Path_250" data-name="Path 250" d="M391.68,145.6l.659,12.222,6.387-2.175Z" transform="translate(-344.822 -113.89)" fill="#f28f8f"/>
      <path id="Path_251" data-name="Path 251" d="M418.743,361.691V359.7c1.286.567,4.273,11.962,9.6,16.848,4.242,3.875,10.017,8.332,11.487,12.651s-8.056,6.953-12.008,6.249c-4.595-.812-12.574-4.043-14.581-7.045s-2.941-7.443-4.595-9.649-5.376-4.595-6.264-7.2c-.475-1.409.092-4.472.766-7.061s1.3-4.993,2.114-4.763v1.532a10.72,10.72,0,0,0,6.724,2.267C413.98,363.514,418.758,363.115,418.743,361.691Z" transform="translate(-402.21 -0.076)" fill="#263238"/>
      <path id="Path_252" data-name="Path 252" d="M382.322,347.366c.689,0,1.256,1.011,2.8,2.68a29.346,29.346,0,0,0,7.9,5.682c5.039,2.512,14.81,6.387,19.252,8.393,2.757,1.241,2.634,4.595-.23,6.479s-9.756,3.278-18.057,1.424c-4.518-1.011-10.384-5.177-14.106-4.962s-10.721.184-13.432-1.715-1.654-5.943-.873-9.4c.842-3.8,1.9-9.71,3.155-9.45v1.3c1.623,2.451,9.955,3.446,13.509,1.639Z" transform="translate(-319.06 -7.101)" fill="#263238"/>
      <path id="Path_253" data-name="Path 253" d="M390.23,257.321A49.745,49.745,0,0,0,408.946,246.6s-3.614,6.754-14.351,13.049l2.3,47.479Z" transform="translate(-352.821 -60.199)" fill="#263238"/>
      <path id="Path_254" data-name="Path 254" d="M379.331,254.5c-6.126-3.17-8.255-4.288-11.028-12.253-19.911-57.343-13.34-64.847-3.415-68.416l7.489,15.209L385.7,236.61c8.837,7.535,27.2,16.311,37.279,18.517a17.031,17.031,0,0,0,7-.735c4.365-1.532,6.586-1.256,10.966-2.42v5.1a78.481,78.481,0,0,0,11.793-1.348c9.067-1.685,12.253,1.332,4.87,10.43-4.212,5.161-12.467,7.152-24.505,5.866a98.355,98.355,0,0,1-18.226-4.748C399.349,262.034,387.4,258.665,379.331,254.5Z" transform="translate(-352.199 -98.883)" fill="#ffa8a7"/>
      <path id="Path_255" data-name="Path 255" d="M418.576,171.873c-6.877,1.869-11.548,7.857-10.721,18.839.7,9.863,4.717,23.923,6.877,33.925,0,0,12.743.168,21.167-6.494-2.1-8.853-4.135-18.1-5.7-26.037C427.183,181.414,422.619,171.551,418.576,171.873Z" transform="translate(-406.622 -99.927)" fill="#737ceb"/>
      <g id="Group_147" data-name="Group 147" transform="translate(1.138 71.938)" opacity="0.05">
        <path id="Path_256" data-name="Path 256" d="M418.576,171.873c-6.877,1.869-11.548,7.857-10.721,18.839.7,9.863,4.717,23.923,6.877,33.925,0,0,12.743.168,21.167-6.494-2.1-8.853-4.135-18.1-5.7-26.037C427.183,181.414,422.619,171.551,418.576,171.873Z" transform="translate(-407.76 -171.865)"/>
      </g>
    </g>
  </g>
  <g id="freepik--Cloud--inject-661" transform="translate(481.684 12.532)">
    <g id="freepik--Clouds--inject-661">
      <path id="Path_257" data-name="Path 257" d="M97.629,79.289l18.379,10.583a22.107,22.107,0,0,1-.153-2.435v-5.3c0-9.435,6.632-13.264,14.81-8.546a28.779,28.779,0,0,1,8.822,8.485c1.332-11.87,10.721-16.3,21.963-9.756C173.7,79.381,183.6,96.55,183.6,110.61v7.949a20.952,20.952,0,0,1-1.869,9.19l15.209,8.776a18.164,18.164,0,0,1,8.209,14.228c0,5.238-3.676,7.367-8.209,4.748L97.706,98.2a18.134,18.134,0,0,1-8.225-14.228C89.4,78.8,93.08,76.67,97.629,79.289Z" transform="translate(-89.48 -69.294)" fill="#f5f5f5"/>
    </g>
  </g>
</svg>
