<svg xmlns="http://www.w3.org/2000/svg" viewBox="0 0 500 500"><g id="freepik--Floor--inject-122"><ellipse cx="250" cy="350.86" rx="222.94" ry="128.72" style="fill:#f5f5f5"></ellipse></g><g id="freepik--Shadows--inject-122"><ellipse cx="88.78" cy="364.13" rx="32.53" ry="18.78" style="fill:#e0e0e0"></ellipse><polygon points="223.08 323.01 133.47 374.75 68.32 336.85 157.93 285.12 223.08 323.01" style="fill:#e0e0e0"></polygon><path d="M369.11,429.26,148.82,302.07a3,3,0,0,1,0-5.21l35.56-20.53a9.51,9.51,0,0,1,9.54,0L414.21,403.51a3,3,0,0,1,0,5.22l-35.55,20.53A9.58,9.58,0,0,1,369.11,429.26Z" style="fill:#e0e0e0"></path></g><g id="freepik--Plant--inject-122"><path d="M403.48,363.54l12.38,7.19s-6.25-19.94-2.78-40c1.31-7.58,4.06-11.34,5-13.36s8.44-14.54,1.87-20.3-22,5.7-21.3,36.6A119.76,119.76,0,0,0,403.48,363.54Z" style="fill:#737CEB"></path><path d="M403.48,363.54l12.38,7.19s-6.25-19.94-2.78-40c1.31-7.58,4.06-11.34,5-13.36s8.44-14.54,1.87-20.3-22,5.7-21.3,36.6A119.76,119.76,0,0,0,403.48,363.54Z" style="opacity:0.30000000000000004"></path><path d="M409.23,367.33a.45.45,0,0,1-.42-.29c-.05-.13-4.72-13.11-4.48-33.94s11.24-32.09,11.35-32.2a.45.45,0,0,1,.64.64c-.11.11-10.85,11-11.09,31.57s4.38,33.49,4.42,33.62a.44.44,0,0,1-.26.57A.45.45,0,0,1,409.23,367.33Z" style="fill:#fff"></path><path d="M407,365.4l20.46,12s9.36-1.38,8.65-10.19-4.51-10.9.23-14.77,6-4.13,5.73-7.93-2.78-5.45-4-7-4.55-4.66-2.2-9.24,5.56-9,.81-11.1c-2.83-1.25-7.59.32-10.75,3.67s-5.75,5.76-8.74,6.54-9.23.84-9,6,1.55,6.93.3,9.22C406.09,347,396,349.28,407,365.4Z" style="fill:#737CEB"></path><path d="M415.29,370.75a.46.46,0,0,1-.45-.41c0-.31-2.24-30.75,18.91-50.74a.44.44,0,0,1,.63,0,.46.46,0,0,1,0,.64c-20.83,19.69-18.65,49.71-18.62,50a.46.46,0,0,1-.41.49Z" style="fill:#fff"></path><path d="M419,344.61a.45.45,0,0,1-.45-.41A17.5,17.5,0,0,0,412.25,332a.45.45,0,0,1-.1-.63.44.44,0,0,1,.62-.1,18,18,0,0,1,6.64,12.9.46.46,0,0,1-.42.48Z" style="fill:#fff"></path><path d="M417.45,349.82a.42.42,0,0,1-.3-.12.44.44,0,0,1,0-.63c.22-.24,5.53-6,17.79-4.28a.45.45,0,0,1,.39.5.46.46,0,0,1-.51.39c-11.76-1.62-16.95,3.93-17,4A.44.44,0,0,1,417.45,349.82Z" style="fill:#fff"></path></g><g id="freepik--Folder--inject-122"><polygon points="384.06 273.54 355.51 256.82 372.51 280.2 384.06 273.54" style="fill:#737CEB"></polygon><polygon points="384.06 273.54 355.51 256.82 372.51 280.2 384.06 273.54" style="opacity:0.6000000000000001"></polygon><path d="M367.09,335.42,200,238.94a4.71,4.71,0,0,1-2.36-4.08V120.77a4.72,4.72,0,0,1,7.07-4.09l167.11,96.48a4.73,4.73,0,0,1,2.36,4.09V331.34A4.72,4.72,0,0,1,367.09,335.42Z" style="fill:#e0e0e0"></path><path d="M372.51,280.2l11.55-6.66v135a6.91,6.91,0,0,1-3.47,6l-11.41,6.61Z" style="fill:#737CEB"></path><path d="M372.51,280.2l11.55-6.66v135a6.91,6.91,0,0,1-3.47,6l-11.41,6.61Z" style="opacity:0.30000000000000004"></path><path d="M359.51,339.69,192.4,243.21a4.74,4.74,0,0,1-2.35-4.09V125a4.71,4.71,0,0,1,7.07-4.08l167.11,96.48a4.71,4.71,0,0,1,2.36,4.08V335.6A4.72,4.72,0,0,1,359.51,339.69Z" style="fill:#ebebeb"></path><path d="M351.92,344.15l-167.1-96.47a4.73,4.73,0,0,1-2.36-4.09V129.5a4.71,4.71,0,0,1,7.07-4.08L356.64,221.9A4.71,4.71,0,0,1,359,226V340.07A4.72,4.72,0,0,1,351.92,344.15Z" style="fill:#fafafa"></path><path d="M158.94,128V295.7a13.55,13.55,0,0,0,6.78,11.74l197,113.72a6.55,6.55,0,0,0,9.82-5.67V280.2l-103.9-60L250.69,178.8a39.24,39.24,0,0,0-16.4-18.39l-65.75-38A6.4,6.4,0,0,0,158.94,128Z" style="fill:#737CEB"></path><path d="M158.94,128V295.7a13.55,13.55,0,0,0,6.78,11.74l197,113.72a6.55,6.55,0,0,0,9.82-5.67V280.2l-103.9-60L250.69,178.8a39.24,39.24,0,0,0-16.4-18.39l-65.75-38A6.4,6.4,0,0,0,158.94,128Z" style="opacity:0.2"></path><path d="M315.06,311c-.55-.32-1.1-.6-1.64-.85C313,297.25,304,282,293,275.64c-3.71-2.15-7.19-3-10.19-2.74-4.2-13.62-13.85-27-25.09-33.52-14.34-8.28-26.1-2.31-27.24,13.25-.69-.48-1.39-.93-2.09-1.34-10.89-6.28-19.71-1.19-19.71,11.38s8.82,27.86,19.71,34.14l86.7,50.06c8.59,5,15.55.94,15.55-9S323.65,315.91,315.06,311Z" style="fill:#737CEB"></path><path d="M315.06,311c-.55-.32-1.1-.6-1.64-.85C313,297.25,304,282,293,275.64c-3.71-2.15-7.19-3-10.19-2.74-4.2-13.62-13.85-27-25.09-33.52-14.34-8.28-26.1-2.31-27.24,13.25-.69-.48-1.39-.93-2.09-1.34-10.89-6.28-19.71-1.19-19.71,11.38s8.82,27.86,19.71,34.14l86.7,50.06c8.59,5,15.55.94,15.55-9S323.65,315.91,315.06,311Z" style="fill:#fff;opacity:0.4"></path><polygon points="241.19 309.83 261.62 347.08 283.45 333.85 274.82 328.98 274.82 292.11 251.56 278.71 251.56 315.88 241.19 309.83" style="fill:#fff"></polygon></g><g id="freepik--Arrow--inject-122"><path d="M182.42,74.42a102.53,102.53,0,0,0-97.73,71.52l-8.27-4.76a1.65,1.65,0,0,0-2.48,1.31,102,102,0,0,0,6.75,47.15,85,85,0,0,0,11.74,20.73,1.43,1.43,0,0,0,2.45-.36,95,95,0,0,1,14.74-25A93.11,93.11,0,0,1,123,171.5a2.19,2.19,0,0,0-.3-3.6l-9.92-5.73a88.4,88.4,0,0,1,171.74,5.55A102.53,102.53,0,0,0,182.42,74.42Z" style="fill:#737CEB"></path><path d="M182.42,74.42a102.53,102.53,0,0,0-97.73,71.52l-8.27-4.76a1.65,1.65,0,0,0-2.48,1.31,102,102,0,0,0,6.75,47.15,85,85,0,0,0,11.74,20.73,1.43,1.43,0,0,0,2.45-.36,95,95,0,0,1,14.74-25A93.11,93.11,0,0,1,123,171.5a2.19,2.19,0,0,0-.3-3.6l-9.92-5.73a88.4,88.4,0,0,1,171.74,5.55A102.53,102.53,0,0,0,182.42,74.42Z" style="fill:#fff;opacity:0.4"></path></g><g id="freepik--Files--inject-122"><ellipse cx="359.15" cy="60.29" rx="23.58" ry="40.84" transform="translate(17.97 187.65) rotate(-30)" style="fill:#737CEB"></ellipse><ellipse cx="359.15" cy="60.29" rx="23.58" ry="40.84" transform="translate(17.97 187.65) rotate(-30)" style="opacity:0.2"></ellipse><ellipse cx="357.45" cy="61.26" rx="23.58" ry="40.84" transform="translate(17.26 186.94) rotate(-30)" style="fill:#737CEB"></ellipse><path d="M346,71,368.23,83.9a1.78,1.78,0,0,0,2.68-1.54V54.86a3.89,3.89,0,0,0-2-3.37L346.68,38.63A1.78,1.78,0,0,0,344,40.17v27.5A3.89,3.89,0,0,0,346,71Z" style="fill:#737CEB"></path><path d="M346,71,368.23,83.9a1.78,1.78,0,0,0,2.68-1.54V54.86a3.89,3.89,0,0,0-2-3.37L346.68,38.63A1.78,1.78,0,0,0,344,40.17v27.5A3.89,3.89,0,0,0,346,71Z" style="fill:#fff;opacity:0.6000000000000001"></path><path d="M348.23,67,366.1,77.27A1.42,1.42,0,0,0,368.24,76V55.4a3.12,3.12,0,0,0-1.56-2.7L348.81,42.39a1.43,1.43,0,0,0-2.14,1.24V64.26A3.12,3.12,0,0,0,348.23,67Z" style="fill:#737CEB"></path><path d="M368.24,55.4V76a1.42,1.42,0,0,1-2.14,1.24L348.23,67a3.09,3.09,0,0,1-1.56-2.69V43.63a1.42,1.42,0,0,1,2.14-1.24l17.87,10.32A3.09,3.09,0,0,1,368.24,55.4Z" style="fill:#fff;opacity:0.4"></path><path d="M368.24,75.27V76a1.42,1.42,0,0,1-2.14,1.24L348.23,67a3.09,3.09,0,0,1-1.56-2.69v-2l4.68-4,5.52,7.86,5.39-6.41Z" style="fill:#fafafa"></path><path d="M352.83,52.12a5.34,5.34,0,0,0,2.4,4.17c1.33.77,2.41.15,2.41-1.39a5.34,5.34,0,0,0-2.41-4.17C353.91,50,352.83,50.59,352.83,52.12Z" style="fill:#fafafa"></path><ellipse cx="409.2" cy="162.96" rx="23.58" ry="40.84" transform="translate(-26.66 226.43) rotate(-30)" style="fill:#737CEB"></ellipse><ellipse cx="409.2" cy="162.96" rx="23.58" ry="40.84" transform="translate(-26.66 226.43) rotate(-30)" style="opacity:0.2"></ellipse><ellipse cx="407.5" cy="163.94" rx="23.58" ry="40.84" transform="translate(-27.37 225.72) rotate(-30)" style="fill:#737CEB"></ellipse><path d="M396.73,141.3a1.79,1.79,0,0,0-2.68,1.55v27.5a3.87,3.87,0,0,0,1.95,3.36l22.28,12.87A1.78,1.78,0,0,0,421,185V164.59l-6-12.79Z" style="fill:#737CEB"></path><path d="M396.73,141.3a1.79,1.79,0,0,0-2.68,1.55v27.5a3.87,3.87,0,0,0,1.95,3.36l22.28,12.87A1.78,1.78,0,0,0,421,185V164.59l-6-12.79Z" style="fill:#fff;opacity:0.6000000000000001"></path><path d="M414.13,156.48l.78-4.68,6,12.8-5.45-4.49A3.87,3.87,0,0,1,414.13,156.48Z" style="fill:#737CEB"></path><path d="M414.13,156.48l.78-4.68,6,12.8-5.45-4.49A3.87,3.87,0,0,1,414.13,156.48Z" style="fill:#fff;opacity:0.4"></path><path d="M416.3,167.22a.61.61,0,0,1-.31-.09L398.4,157a.62.62,0,0,1-.22-.84.61.61,0,0,1,.83-.22l17.6,10.15a.62.62,0,0,1,.22.84A.6.6,0,0,1,416.3,167.22Z" style="fill:#fafafa"></path><path d="M416.3,173.18a.71.71,0,0,1-.31-.08L398.4,162.94a.62.62,0,0,1-.22-.84.61.61,0,0,1,.83-.22L416.61,172a.62.62,0,0,1,.22.84A.6.6,0,0,1,416.3,173.18Z" style="fill:#fafafa"></path><path d="M416.3,179.14a.71.71,0,0,1-.31-.08L398.4,168.9a.62.62,0,0,1-.22-.84.61.61,0,0,1,.83-.22L416.61,178a.61.61,0,0,1-.31,1.14Z" style="fill:#fafafa"></path><ellipse cx="303.51" cy="103" rx="23.58" ry="40.84" transform="matrix(0.87, -0.5, 0.5, 0.87, -10.84, 165.55)" style="fill:#737CEB"></ellipse><ellipse cx="303.51" cy="103" rx="23.58" ry="40.84" transform="matrix(0.87, -0.5, 0.5, 0.87, -10.84, 165.55)" style="opacity:0.2"></ellipse><ellipse cx="301.82" cy="103.97" rx="23.58" ry="40.84" transform="translate(-11.55 164.84) rotate(-30)" style="fill:#737CEB"></ellipse><path d="M290.31,113.75l22.28,12.86a1.78,1.78,0,0,0,2.68-1.54V97.57a3.89,3.89,0,0,0-1.95-3.37L291,81.34a1.78,1.78,0,0,0-2.67,1.54v27.5A3.9,3.9,0,0,0,290.31,113.75Z" style="fill:#737CEB"></path><path d="M290.31,113.75l22.28,12.86a1.78,1.78,0,0,0,2.68-1.54V97.57a3.89,3.89,0,0,0-1.95-3.37L291,81.34a1.78,1.78,0,0,0-2.67,1.54v27.5A3.9,3.9,0,0,0,290.31,113.75Z" style="fill:#fff;opacity:0.6000000000000001"></path><path d="M296.38,99.31v9.33a1.39,1.39,0,0,0,1.39,1.39h8.09a1.39,1.39,0,0,0,1.05-2.3l-8.09-9.33A1.39,1.39,0,0,0,296.38,99.31Z" style="fill:#fafafa"></path><path d="M359.15,100.52a.71.71,0,0,1-.71-.71V97.92a.71.71,0,0,1,.71-.71.7.7,0,0,1,.7.71v1.89A.7.7,0,0,1,359.15,100.52Z" style="fill:#737CEB"></path><path d="M359.15,206.3a.71.71,0,0,1-.71-.71v-3.78a.71.71,0,0,1,.71-.71.7.7,0,0,1,.7.71v3.78A.7.7,0,0,1,359.15,206.3Zm0-7.56a.71.71,0,0,1-.71-.71v-3.77a.71.71,0,0,1,.71-.71.7.7,0,0,1,.7.71V198A.7.7,0,0,1,359.15,198.74Zm0-7.55a.71.71,0,0,1-.71-.71V186.7a.71.71,0,0,1,.71-.71.7.7,0,0,1,.7.71v3.78A.7.7,0,0,1,359.15,191.19Zm0-7.56a.71.71,0,0,1-.71-.71v-3.78a.7.7,0,0,1,.71-.7.7.7,0,0,1,.7.7v3.78A.7.7,0,0,1,359.15,183.63Zm0-7.55a.71.71,0,0,1-.71-.71v-3.78a.71.71,0,0,1,.71-.71.7.7,0,0,1,.7.71v3.78A.7.7,0,0,1,359.15,176.08Zm0-7.56a.71.71,0,0,1-.71-.71V164a.71.71,0,0,1,.71-.71.7.7,0,0,1,.7.71v3.78A.7.7,0,0,1,359.15,168.52Zm0-7.56a.7.7,0,0,1-.71-.7v-3.78a.71.71,0,0,1,.71-.71.7.7,0,0,1,.7.71v3.78A.7.7,0,0,1,359.15,161Zm0-7.55a.71.71,0,0,1-.71-.71v-3.78a.71.71,0,0,1,.71-.71.7.7,0,0,1,.7.71v3.78A.7.7,0,0,1,359.15,153.41Zm0-7.56a.71.71,0,0,1-.71-.71v-3.77a.71.71,0,0,1,.71-.71.7.7,0,0,1,.7.71v3.77A.7.7,0,0,1,359.15,145.85Zm0-7.55a.71.71,0,0,1-.71-.71v-3.78a.71.71,0,0,1,.71-.71.7.7,0,0,1,.7.71v3.78A.7.7,0,0,1,359.15,138.3Zm0-7.56a.71.71,0,0,1-.71-.71v-3.78a.7.7,0,0,1,.71-.7.7.7,0,0,1,.7.7V130A.7.7,0,0,1,359.15,130.74Zm0-7.55a.71.71,0,0,1-.71-.71V118.7a.71.71,0,0,1,.71-.71.7.7,0,0,1,.7.71v3.78A.7.7,0,0,1,359.15,123.19Zm0-7.56a.71.71,0,0,1-.71-.71v-3.78a.71.71,0,0,1,.71-.71.7.7,0,0,1,.7.71v3.78A.7.7,0,0,1,359.15,115.63Zm0-7.56a.7.7,0,0,1-.71-.7v-3.78a.71.71,0,0,1,.71-.71.7.7,0,0,1,.7.71v3.78A.7.7,0,0,1,359.15,108.07Z" style="fill:#737CEB"></path><path d="M359.15,212a.7.7,0,0,1-.71-.7v-1.89a.71.71,0,0,1,.71-.71.7.7,0,0,1,.7.71v1.89A.7.7,0,0,1,359.15,212Z" style="fill:#737CEB"></path><path d="M377,165.49a.69.69,0,0,1-.63-.39.7.7,0,0,1,.32-.95l1.69-.84a.7.7,0,1,1,.63,1.26l-1.69.85A.71.71,0,0,1,377,165.49Z" style="fill:#737CEB"></path><path d="M368.68,169.63a.69.69,0,0,1-.63-.39.7.7,0,0,1,.32-1l4.16-2.07a.71.71,0,0,1,1,.32.71.71,0,0,1-.32,1L369,169.56A.71.71,0,0,1,368.68,169.63Z" style="fill:#737CEB"></path><path d="M362.83,172.54a.69.69,0,0,1-.63-.39.7.7,0,0,1,.32-1l1.69-.84a.71.71,0,0,1,1,.32.71.71,0,0,1-.32.95l-1.69.84A.71.71,0,0,1,362.83,172.54Z" style="fill:#737CEB"></path><path d="M336.65,121.3a.69.69,0,0,1-.6-.34l-1-1.62a.7.7,0,0,1,.23-1,.72.72,0,0,1,1,.24l1,1.62a.7.7,0,0,1-.61,1.07Z" style="fill:#737CEB"></path><path d="M352.17,146.91a.71.71,0,0,1-.61-.34l-1.94-3.2a.71.71,0,1,1,1.21-.74l1.94,3.2a.72.72,0,0,1-.24,1A.68.68,0,0,1,352.17,146.91Zm-3.88-6.4a.71.71,0,0,1-.61-.34l-1.94-3.2a.72.72,0,0,1,.24-1,.71.71,0,0,1,1,.24l1.94,3.2a.72.72,0,0,1-.6,1.08Zm-3.88-6.4a.73.73,0,0,1-.61-.35l-1.94-3.2a.71.71,0,0,1,1.21-.73L345,133a.7.7,0,0,1-.23,1A.75.75,0,0,1,344.41,134.11Zm-3.88-6.41a.72.72,0,0,1-.61-.34l-1.94-3.2a.71.71,0,0,1,1.22-.73l1.94,3.2a.7.7,0,0,1-.61,1.07Z" style="fill:#737CEB"></path><path d="M355.08,151.73a.7.7,0,0,1-.6-.35l-1-1.61a.71.71,0,0,1,1.21-.74l1,1.62a.7.7,0,0,1-.24,1A.7.7,0,0,1,355.08,151.73Z" style="fill:#737CEB"></path></g><g id="freepik--Stairs--inject-122"><polygon points="149.62 258.49 104.76 285.02 104.76 309.81 81.34 322.93 81.34 336.26 124.8 361.47 193.07 323.16 193.07 283.7 149.62 258.49" style="fill:#263238"></polygon><polygon points="81.34 322.93 124.8 348.14 124.8 361.47 81.34 336.26 81.34 322.93" style="fill:#455a64"></polygon><polygon points="148.21 310.24 148.21 335.03 124.8 348.14 124.8 361.47 193.07 323.16 193.07 283.7 148.21 310.24" style="fill:#263238"></polygon><polygon points="124.8 348.14 148.21 335.03 104.76 309.81 81.34 322.93 124.8 348.14" style="fill:#37474f"></polygon><polygon points="148.21 335.03 148.21 310.24 104.76 285.02 104.76 309.81 148.21 335.03" style="fill:#455a64"></polygon><polygon points="148.21 310.24 104.76 285.02 149.62 258.49 193.07 283.7 148.21 310.24" style="fill:#37474f"></polygon></g><g id="freepik--Character--inject-122"><path d="M160.52,193.37s-10.7,15-4.34,20.19,20.31,1,20.87-1.47S160.52,193.37,160.52,193.37Z" style="fill:#263238"></path><path d="M112.72,324.65,97,345.57l4.37,3.45s6.3-1.32,8.53-9.64A100,100,0,0,0,112.72,324.65Z" style="fill:#ffa8a7"></path><path d="M114.14,323.23s4.37,4,2.44,7.51-5.28,6.4-5.38,11.07-2.44,13-7.62,14.32-10.25-.48-10.15-2.32S97,345.57,97,345.57s4.76,2.95,8.27.1,4.32-14.82,4.32-14.82Z" style="fill:#737CEB"></path><path d="M114.14,323.23s4.37,4,2.44,7.51-5.28,6.4-5.38,11.07-2.44,13-7.62,14.32-10.25-.48-10.15-2.32S97,345.57,97,345.57s4.76,2.95,8.27.1,4.32-14.82,4.32-14.82Z" style="opacity:0.2"></path><path d="M141,258.47s-35.06,14.83-37.9,16.29-7.82,4-7.32,15.43,3.37,39.74,3.37,39.74l19.22-37L168,269.34Z" style="fill:#737CEB"></path><path d="M141,258.47s-35.06,14.83-37.9,16.29-7.82,4-7.32,15.43,3.37,39.74,3.37,39.74l19.22-37L168,269.34Z" style="opacity:0.5"></path><path d="M97.72,315.28c.74,8.08,1.41,14.65,1.41,14.65l19.22-37,35.39-16.85-8-6.29c-11.31,5.68-27.74,13.92-32.65,16.44-6.24,3.2-8.17,12.25-13.55,24.82C98.93,312.43,98.33,313.83,97.72,315.28Z" style="fill:#737CEB"></path><path d="M97.72,315.28c.74,8.08,1.41,14.65,1.41,14.65l19.22-37,35.39-16.85-8-6.29c-11.31,5.68-27.74,13.92-32.65,16.44-6.24,3.2-8.17,12.25-13.55,24.82C98.93,312.43,98.33,313.83,97.72,315.28Z" style="opacity:0.7000000000000001"></path><polygon points="143.89 266.03 147.51 271.5 144.68 271.93 143.89 266.03" style="fill:#737CEB"></polygon><polygon points="143.89 266.03 147.51 271.5 144.68 271.93 143.89 266.03" style="opacity:0.7000000000000001"></polygon><path d="M97.19,353.81s.5.84.5,5.07S96,364,93.91,364.71s-8.3,5.26-10,7.24-8.56,4-15.34,2.82-8.21-5.66-4.95-8.53,12.55-8.1,12.55-8.1Z" style="fill:#737CEB"></path><path d="M178.37,267.23l-15.08-3.49s-41.89,21-48.13,24.2S107,300.2,101.6,312.77c-4,9.46-9.33,22.44-12.82,30.24,0,0,2.48,6.58,10.34,4.93h0c2.66-5.81,7.36-11,14.2-20.24a50.45,50.45,0,0,0,9.14-19.3,6.77,6.77,0,0,1,5-5.19c6.91-1.68,21-5.33,35.88-10.45C184.31,285.54,178.37,267.23,178.37,267.23Z" style="fill:#737CEB"></path><path d="M178.37,267.23l-15.08-3.49s-41.89,21-48.13,24.2S107,300.2,101.6,312.77c-4,9.46-9.33,22.44-12.82,30.24,0,0,2.48,6.58,10.34,4.93h0c2.66-5.81,7.36-11,14.2-20.24a50.45,50.45,0,0,0,9.14-19.3,6.77,6.77,0,0,1,5-5.19c6.91-1.68,21-5.33,35.88-10.45C184.31,285.54,178.37,267.23,178.37,267.23Z" style="opacity:0.5"></path><path d="M88.78,343c-1.15,2.57-2.1,4.58-2.75,5.71-2.63,4.57-10.3,9.52-13,11.86s-3.27,3.22-.69,5.2c6.53,5,12.19-.46,15.85-4a45.34,45.34,0,0,1,8-5.87A1.63,1.63,0,0,0,97,354.8a27.35,27.35,0,0,1,2.13-6.86h0C91.26,349.59,88.78,343,88.78,343Z" style="fill:#ffa8a7"></path><polygon points="162.38 281.55 136.01 296.77 92.16 271.42 118.53 255.88 162.38 281.55" style="fill:#37474f"></polygon><polygon points="138.84 277.21 128.95 271.5 135.15 267.92 145.05 273.63 138.84 277.21" style="fill:#263238"></polygon><polygon points="134.88 292.97 148.21 285.12 122.17 269.36 134.88 292.97" style="fill:#263238"></polygon><path d="M135.66,245.92l-10.55,5a93.49,93.49,0,0,0-9.31,2.88s-7.34,3-7.68,5,5.51,6.71,10.64,4.4a16.71,16.71,0,0,1,4.29-1.55,15,15,0,0,0,8.43-3.62l8.53-2.34S144.41,247.15,135.66,245.92Z" style="fill:#ffa8a7"></path><path d="M128.83,260.64c-1.22,1.31-4.7,4.61-5.46,5.56s-2.56-1.5.59-5.15a29.63,29.63,0,0,0,7.6-4.14A29.87,29.87,0,0,1,128.83,260.64Z" style="fill:#ffa8a7"></path><path d="M157.25,209.24h0a10.36,10.36,0,0,0-11.46,6.95,45.43,45.43,0,0,0-2.15,10.37c-.91,10.86-1.16,16.29-1.16,16.29l-10.92,5s5.9.28,5.5,8.6L150.65,253Z" style="fill:#737CEB"></path><path d="M157.25,209.24h0a10.36,10.36,0,0,0-11.46,6.95,45.43,45.43,0,0,0-2.15,10.37c-.91,10.86-1.16,16.29-1.16,16.29l-10.92,5s5.85.28,5.5,8.6L150.65,253Z" style="fill:#fff;opacity:0.30000000000000004"></path><path d="M142.48,242.85a7.55,7.55,0,0,1,3.22,2s-1.32-2.5-3.16-3.27Z" style="fill:#737CEB"></path><path d="M142.48,242.85a7.55,7.55,0,0,1,3.22,2s-1.32-2.5-3.16-3.27Z" style="fill:#fff;opacity:0.1"></path><path d="M152.47,184.58s-6.74-2-4.31-9.61,19.62-10.87,32.56,0c0,0,9.08-1.4,9.08,11.28s-5.08,18.47,2.74,21.77c0,0-4.77,4.52-8.63,0,0,0-.81,9.9-15.44,6.45Z" style="fill:#263238"></path><path d="M174.47,213.56l7.66,3.26v22.46a49.82,49.82,0,0,0-3.83,18.12v11.12s-15.66,5.58-27.8-.46c-5.88-2.92-9.52-9.59-9.52-9.59s6.47-3.81,6.47-8.46a64.74,64.74,0,0,0-1.29-10.81,13,13,0,0,1-3.73-10.89c.86-7.42,14.82-19.07,14.82-19.07l5.2.71Z" style="fill:#737CEB"></path><polygon points="174.47 213.56 162.45 209.95 162.45 195.4 174.47 195.4 174.47 213.56" style="fill:#ffa8a7"></polygon><path d="M162.45,210a19.32,19.32,0,0,0,11-10.5v-4h-11Z" style="fill:#f28f8f"></path><path d="M159.65,175.69s-11,.64-9.64,19.45c.63,8.69,2.66,13.19,9.36,12.86,7.58-.37,18.35-5.58,17.65-20.46S159.65,175.69,159.65,175.69Z" style="fill:#ffa8a7"></path><path d="M174.47,195.4s-3,.8-3-3.52c0,0-13.4-.91-16.36-14.21,0,0,1.32-4,9.69-4s15.39,7.39,13.21,17.56Z" style="fill:#263238"></path><polygon points="158.07 191.36 158.07 197.83 154.28 196.67 158.07 191.36" style="fill:#f28f8f"></polygon><path d="M163.76,192.05a1.32,1.32,0,1,1-1.31-1.32A1.31,1.31,0,0,1,163.76,192.05Z" style="fill:#263238"></path><path d="M155.1,191.13a1.32,1.32,0,1,1-1.31-1.31A1.32,1.32,0,0,1,155.1,191.13Z" style="fill:#263238"></path><path d="M152.18,188.39l2.58-1.53s-1-1-2-.41A1.8,1.8,0,0,0,152.18,188.39Z" style="fill:#263238"></path><path d="M158.4,200a6.69,6.69,0,0,0,4.24-1.14s.29,2.24-1.58,2.66A2.41,2.41,0,0,1,158.4,200Z" style="fill:#f28f8f"></path><path d="M173.41,195.89a7.27,7.27,0,0,1,.59-3.19,3.37,3.37,0,0,1,2.93-2.29c3.37-.09,3.83,3.16,3.78,4.32-.12,3-2.58,6.32-7.16,6.45Z" style="fill:#ffa8a7"></path><path d="M162.45,210l-3.55,4.61a4.49,4.49,0,0,0,1.47,6.71h0a7.66,7.66,0,0,0,9.53-2l4.57-5.71Z" style="fill:#ffa8a7"></path><path d="M162.38,265.4l-10,5.47a31.13,31.13,0,0,0-4.62,0c-1.78.22-6.5,1.08-7.72,1.13s-.05,2.33,3.15,2.13c0,0-7.21,3.3-7.47,5.28s5.78,6.48,10.82,4a16.35,16.35,0,0,1,4.21-1.72,15.11,15.11,0,0,0,8.28-4l8.43-2.7S171.16,266.26,162.38,265.4Z" style="fill:#ffa8a7"></path><path d="M182.13,216.82S176,221,177.05,234a152.64,152.64,0,0,1,0,23.63l-14.68,7.77a11.21,11.21,0,0,1,5,9.59s21.08-4.34,22.34-9.25,1.72-28.4,1.72-32.48S189.79,220.08,182.13,216.82Z" style="fill:#737CEB"></path><path d="M182.13,216.82S176,221,177.05,234a152.64,152.64,0,0,1,0,23.63l-14.68,7.77a11.21,11.21,0,0,1,5,9.59s21.08-4.34,22.34-9.25,1.72-28.4,1.72-32.48S189.79,220.08,182.13,216.82Z" style="fill:#fff;opacity:0.30000000000000004"></path><path d="M177.06,257.63a12,12,0,0,1,4.72.86,10.08,10.08,0,0,0-4.63-2Z" style="fill:#737CEB"></path><path d="M177.06,257.63a12,12,0,0,1,4.72.86,10.08,10.08,0,0,0-4.63-2Z" style="fill:#fff;opacity:0.1"></path><path d="M86.05,242.36l4.58,30a.09.09,0,0,0,0,.05l45.55,26.42a.07.07,0,0,0,.1-.07l-4.45-29.11a4.28,4.28,0,0,0-2-3L88.07,241A1.33,1.33,0,0,0,86.05,242.36Z" style="fill:#455a64"></path><path d="M136.21,298.84l24.32-14.09a3.71,3.71,0,0,0,1.85-3.2h0L136,296.77Z" style="fill:#263238"></path><path d="M112.4,271.28c0,2.15-1.5,3-3.36,1.94a7.43,7.43,0,0,1-3.36-5.82c0-2.14,1.51-3,3.36-1.94A7.42,7.42,0,0,1,112.4,271.28Z" style="fill:#37474f"></path><path d="M157.25,240.81s9.19,2.5,14.07-4.4C171.32,236.41,168.16,245.32,157.25,240.81Z" style="opacity:0.2"></path></g></svg>