<svg xmlns="http://www.w3.org/2000/svg" xmlns:xlink="http://www.w3.org/1999/xlink" width="819.149" height="136.977" viewBox="0 0 819.149 136.977">
  <defs>
    <linearGradient id="linear-gradient" x1="0.083" y1="-0.258" x2="0.947" y2="-0.288" gradientUnits="objectBoundingBox">
      <stop offset="0" stop-color="#737ceb"/>
      <stop offset="0.232" stop-color="#c063ea"/>
      <stop offset="0.419" stop-color="#eb5b66"/>
      <stop offset="0.424" stop-color="#eb5b66"/>
      <stop offset="0.616" stop-color="#e2c655"/>
      <stop offset="0.818" stop-color="#4dc45e"/>
      <stop offset="1" stop-color="#57c0e6"/>
    </linearGradient>
  </defs>
  <g id="Group_322" data-name="Group 322" transform="translate(-238.759 -77.091)">
    <g id="Group_155" data-name="Group 155">
      <path id="Path_421" data-name="Path 421" d="M80.6-54.081H54.081a7.3,7.3,0,0,0-1.723-4.228,9.916,9.916,0,0,0-3.889-2.741,13.805,13.805,0,0,0-5.246-.966,13.872,13.872,0,0,0-6.369,1.357,4.108,4.108,0,0,0-2.61,3.863,4.306,4.306,0,0,0,1.54,3.289q1.592,1.514,6.186,2.349l16.287,2.923q12.32,2.245,18.349,7.543t6.081,14.173A23.278,23.278,0,0,1,77.6-11.667a32.251,32.251,0,0,1-13.729,9.71A53.793,53.793,0,0,1,44.058,1.462q-18.375,0-28.737-7.517A26.8,26.8,0,0,1,3.759-25.892H32.365a8.111,8.111,0,0,0,3.785,5.873,14.753,14.753,0,0,0,8.117,2.062,14.018,14.018,0,0,0,6.551-1.357,4.327,4.327,0,0,0,2.636-3.863,4.248,4.248,0,0,0-2.271-3.654,20.788,20.788,0,0,0-6.917-2.192l-14.2-2.506Q17.8-33.67,11.693-39.673T5.638-55.125A22.361,22.361,0,0,1,10.049-69.3a27.565,27.565,0,0,1,12.789-8.874A57.425,57.425,0,0,1,42.6-81.226q17.383,0,27.432,7.2T80.6-54.081ZM132.384,1.462q-13.05,0-22.342-5.194A35.332,35.332,0,0,1,95.79-18.244a45.378,45.378,0,0,1-4.959-21.638A45.378,45.378,0,0,1,95.79-61.52a35.332,35.332,0,0,1,14.251-14.512q9.292-5.194,22.342-5.194,11.8,0,20.437,4.254a31.741,31.741,0,0,1,13.39,12.006,34.462,34.462,0,0,1,4.8,18.192H144.286q-.574-6.316-3.628-9.631a10.2,10.2,0,0,0-7.856-3.315,10.488,10.488,0,0,0-6.577,2.166,13.874,13.874,0,0,0-4.385,6.525,32.7,32.7,0,0,0-1.566,10.936,32.7,32.7,0,0,0,1.566,10.936,13.874,13.874,0,0,0,4.385,6.525,10.488,10.488,0,0,0,6.577,2.166,10.656,10.656,0,0,0,5.638-1.488,11.016,11.016,0,0,0,3.993-4.385,17.814,17.814,0,0,0,1.853-7.073h26.727a36.353,36.353,0,0,1-4.855,18.453A31.415,31.415,0,0,1,152.873-2.819Q144.286,1.462,132.384,1.462ZM182.915,0V-80.182h27.98v15.243h.835q2.192-8.457,6.969-12.372a17.127,17.127,0,0,1,11.2-3.915,24.342,24.342,0,0,1,3.732.287,26.086,26.086,0,0,1,3.576.809v24.587a25.8,25.8,0,0,0-5.272-1.1A47.4,47.4,0,0,0,226.555-57a15.149,15.149,0,0,0-7.6,1.905,13.789,13.789,0,0,0-5.3,5.325,16.021,16.021,0,0,0-1.931,8.013V0Zm82.27,1.253a33.957,33.957,0,0,1-13.546-2.532,20.224,20.224,0,0,1-9.214-7.7q-3.341-5.168-3.341-13.155a25.785,25.785,0,0,1,2.245-11.249,20.264,20.264,0,0,1,6.264-7.648,29.53,29.53,0,0,1,9.37-4.542,56.188,56.188,0,0,1,11.563-2.036,108.191,108.191,0,0,0,10.832-1.279,14.422,14.422,0,0,0,5.925-2.14,4.388,4.388,0,0,0,1.827-3.68v-.209a5.494,5.494,0,0,0-2.4-4.8,10.552,10.552,0,0,0-6.16-1.67,11.487,11.487,0,0,0-6.708,1.8,7.64,7.64,0,0,0-3.106,5.507H242.216a27.337,27.337,0,0,1,4.672-13.494,28.869,28.869,0,0,1,12.137-9.918q7.987-3.732,19.941-3.732a54.789,54.789,0,0,1,15.452,2.01,36.572,36.572,0,0,1,11.641,5.586,25.021,25.021,0,0,1,7.334,8.352,21.786,21.786,0,0,1,2.532,10.362V0H288.989V-11.276h-.626a23.313,23.313,0,0,1-5.82,7.256A21.8,21.8,0,0,1,274.764,0,34.59,34.59,0,0,1,265.185,1.253Zm9.4-18.166a14.4,14.4,0,0,0,6.186-1.357,11.912,11.912,0,0,0,4.724-3.915,10.407,10.407,0,0,0,1.827-6.212V-35.08q-1.148.47-2.427.887t-2.715.783q-1.436.365-3.028.679t-3.315.574a16.531,16.531,0,0,0-5.455,1.7,8.138,8.138,0,0,0-3.132,2.871,7.214,7.214,0,0,0-1.018,3.785,6.023,6.023,0,0,0,2.349,5.116A9.684,9.684,0,0,0,274.581-16.913Zm55.125,46.982V-80.182h28.607v13.99h.626a24.521,24.521,0,0,1,4.594-7.491,22.339,22.339,0,0,1,7.517-5.481,24.787,24.787,0,0,1,10.44-2.062A29.327,29.327,0,0,1,396.6-77q7.178,4.228,11.693,13.311t4.515,23.6q0,13.886-4.307,23.021T397.02-3.445a29.1,29.1,0,0,1-15.739,4.489A25.74,25.74,0,0,1,371.232-.809a22.369,22.369,0,0,1-7.517-5.064,22.878,22.878,0,0,1-4.776-7.282h-.418V30.068Zm28.189-70.159a29.715,29.715,0,0,0,1.54,10.1,14.71,14.71,0,0,0,4.385,6.577,10.43,10.43,0,0,0,6.812,2.323,10.373,10.373,0,0,0,6.76-2.271,14.2,14.2,0,0,0,4.281-6.525,31.035,31.035,0,0,0,1.488-10.205A31.035,31.035,0,0,0,381.673-50.3a14.2,14.2,0,0,0-4.281-6.525,10.373,10.373,0,0,0-6.76-2.271,10.583,10.583,0,0,0-6.812,2.271,14.341,14.341,0,0,0-4.385,6.525A30.068,30.068,0,0,0,357.895-40.091ZM424.5,0V-106.909H453.32v40.717h.418a24.521,24.521,0,0,1,4.594-7.491,22.339,22.339,0,0,1,7.517-5.481,24.787,24.787,0,0,1,10.44-2.062A29.326,29.326,0,0,1,491.4-77q7.178,4.228,11.693,13.311t4.515,23.6q0,13.886-4.307,23.021T491.818-3.445A29.1,29.1,0,0,1,476.08,1.044,25.74,25.74,0,0,1,466.031-.809a22.369,22.369,0,0,1-7.517-5.064,22.879,22.879,0,0,1-4.776-7.282h-.626V0Zm28.189-40.091a29.715,29.715,0,0,0,1.54,10.1,14.71,14.71,0,0,0,4.385,6.577,10.43,10.43,0,0,0,6.812,2.323,10.373,10.373,0,0,0,6.76-2.271,14.2,14.2,0,0,0,4.281-6.525,31.035,31.035,0,0,0,1.488-10.205A31.035,31.035,0,0,0,476.471-50.3a14.2,14.2,0,0,0-4.281-6.525,10.373,10.373,0,0,0-6.76-2.271,10.583,10.583,0,0,0-6.812,2.271,14.341,14.341,0,0,0-4.385,6.525A30.068,30.068,0,0,0,452.693-40.091ZM558.349,1.462q-13.05,0-22.342-5.194a35.332,35.332,0,0,1-14.251-14.512A45.378,45.378,0,0,1,516.8-39.882a45.378,45.378,0,0,1,4.959-21.638,35.332,35.332,0,0,1,14.251-14.512q9.292-5.194,22.342-5.194t22.342,5.194A35.332,35.332,0,0,1,594.943-61.52,45.378,45.378,0,0,1,599.9-39.882a45.378,45.378,0,0,1-4.959,21.638A35.332,35.332,0,0,1,580.692-3.732Q571.4,1.462,558.349,1.462Zm.209-21.3a9.007,9.007,0,0,0,6.316-2.453,15.919,15.919,0,0,0,4.124-7,35.443,35.443,0,0,0,1.462-10.806A35.385,35.385,0,0,0,569-50.923a15.919,15.919,0,0,0-4.124-6.969,9.007,9.007,0,0,0-6.316-2.453,9.652,9.652,0,0,0-6.63,2.453,15.411,15.411,0,0,0-4.228,6.969,35.385,35.385,0,0,0-1.462,10.832A35.443,35.443,0,0,0,547.7-29.285a15.412,15.412,0,0,0,4.228,7A9.652,9.652,0,0,0,558.558-19.837Zm91.666,21.3q-13.05,0-22.342-5.194a35.332,35.332,0,0,1-14.251-14.512,45.378,45.378,0,0,1-4.959-21.638,45.378,45.378,0,0,1,4.959-21.638,35.332,35.332,0,0,1,14.251-14.512q9.292-5.194,22.342-5.194t22.342,5.194A35.332,35.332,0,0,1,686.818-61.52a45.378,45.378,0,0,1,4.959,21.638,45.378,45.378,0,0,1-4.959,21.638A35.332,35.332,0,0,1,672.567-3.732Q663.275,1.462,650.224,1.462Zm.209-21.3a9.007,9.007,0,0,0,6.316-2.453,15.919,15.919,0,0,0,4.124-7,35.443,35.443,0,0,0,1.462-10.806,35.385,35.385,0,0,0-1.462-10.832,15.919,15.919,0,0,0-4.124-6.969,9.007,9.007,0,0,0-6.316-2.453,9.652,9.652,0,0,0-6.63,2.453,15.411,15.411,0,0,0-4.228,6.969,35.385,35.385,0,0,0-1.462,10.832,35.443,35.443,0,0,0,1.462,10.806,15.412,15.412,0,0,0,4.228,7A9.652,9.652,0,0,0,650.433-19.837ZM729.362-19l.209-34.244h3.758l19.419-26.936h32.365L752.54-38.212H744.4ZM703.47,0V-106.909h28.815V0Zm49.487,0L734.582-31.739,753.375-52.2,785.949,0Zm55.334,1.67a14.214,14.214,0,0,1-10.362-4.254,13.838,13.838,0,0,1-4.254-10.362,13.573,13.573,0,0,1,4.254-10.179,14.259,14.259,0,0,1,10.362-4.228,14.247,14.247,0,0,1,10.153,4.228,13.773,13.773,0,0,1,4.463,10.179,14.055,14.055,0,0,1-2.114,7.387,15.664,15.664,0,0,1-5.351,5.272A13.732,13.732,0,0,1,808.291,1.67Z" transform="translate(235 184)" fill="url(#linear-gradient)"/>
    </g>
    <line id="Line_27" data-name="Line 27" x2="303" transform="translate(245.5 201.5)" fill="none" stroke="#707070" stroke-width="12"/>
    <line id="Line_28" data-name="Line 28" x2="430" transform="translate(609.5 201.5)" fill="none" stroke="#707070" stroke-width="12"/>
  </g>
</svg>
