<?xml version="1.0" encoding="utf-8"?>
<!-- Generator: Adobe Illustrator 24.1.0, SVG Export Plug-In . SVG Version: 6.00 Build 0)  -->
<svg version="1.1" id="Layer_1" xmlns="http://www.w3.org/2000/svg" xmlns:xlink="http://www.w3.org/1999/xlink" x="0px" y="0px"
	 viewBox="0 0 30 33.3" style="enable-background:new 0 0 30 33.3;" xml:space="preserve">
<style type="text/css">
	.st0{fill:none;stroke:#000000;stroke-width:2.3438;stroke-miterlimit:10;}
</style>
<g>
	<path class="st0" d="M22.2,12.9v8.7c0,3.9-3.3,7.2-7.2,7.2s-7.2-3.2-7.2-7.2v-8.7c0-0.7,0.6-1.2,1.3-1.2H21
		C21.7,11.7,22.2,12.2,22.2,12.9z"/>
	<path class="st0" d="M20,11.7h-9.8c0-2.7,2.2-4.9,4.9-4.9C17.8,6.8,20,8.9,20,11.7z"/>
	<line class="st0" x1="7.9" y1="21.4" x2="3.2" y2="21.4"/>
	<line class="st0" x1="3.2" y1="15.7" x2="7.9" y2="15.7"/>
	<line class="st0" x1="22.3" y1="15.7" x2="26.9" y2="15.7"/>
	<line class="st0" x1="26.9" y1="21.4" x2="22.3" y2="21.4"/>
	<line class="st0" x1="9.1" y1="26.1" x2="5.7" y2="29.1"/>
	<line class="st0" x1="21.1" y1="26.1" x2="24.5" y2="29.1"/>
	<line class="st0" x1="15" y1="22.4" x2="15" y2="12.4"/>
	<line class="st0" x1="10" y1="4.1" x2="12.2" y2="7.3"/>
	<line class="st0" x1="20.2" y1="4.1" x2="17.9" y2="7.3"/>
</g>
</svg>
